<svg width="20" height="20" viewBox="0 0 20 20" fill="none" xmlns="http://www.w3.org/2000/svg">
<path d="M9.88672 0.25C15.2057 0.250072 19.5244 4.61334 19.5244 10C19.5242 15.3865 15.2055 19.7499 9.88672 19.75C4.56791 19.75 0.250226 15.3866 0.25 10C0.25 4.61327 4.56774 0.25 9.88672 0.25ZM9.35742 7.74902C9.08064 7.74904 8.79436 7.78668 8.49902 7.86035L8.20215 7.94531C7.81403 8.06955 7.40757 8.21948 6.98535 8.39355L6.86719 8.44238L6.83789 8.56641L6.66992 9.26758L6.55859 9.73145L7.00293 9.55859C7.1157 9.51485 7.25657 9.46894 7.42676 9.41602C7.57789 9.37097 7.72351 9.35059 7.8623 9.35059C8.1858 9.35063 8.32232 9.40749 8.36816 9.44922V9.4502C8.41152 9.49218 8.46973 9.60833 8.46973 9.87793C8.46971 10.0215 8.45368 10.1834 8.41797 10.3643C8.38061 10.5515 8.33259 10.7545 8.27734 10.9697L7.6416 13.2402L7.63965 13.251C7.58231 13.4959 7.539 13.7176 7.51172 13.917V13.918C7.48527 14.1178 7.47168 14.3154 7.47168 14.5088C7.47179 15.046 7.67111 15.4999 8.06738 15.8525C8.46849 16.2094 9.01514 16.3721 9.6709 16.3721C10.0931 16.372 10.4743 16.3153 10.8096 16.1973V16.1982C11.118 16.0899 11.5269 15.9342 12.0371 15.7305L12.1572 15.6826L12.1875 15.5566L12.3574 14.8564L12.4805 14.3506L12.0088 14.5713C11.9741 14.5875 11.9258 14.6073 11.8623 14.6289L11.624 14.7012C11.4425 14.7513 11.2925 14.7734 11.167 14.7734C10.8513 14.7734 10.6954 14.7179 10.6338 14.667L10.6328 14.666L10.5977 14.624C10.5612 14.5659 10.5254 14.4534 10.5254 14.2432C10.5254 14.1461 10.5419 13.9859 10.582 13.7578C10.6229 13.5306 10.6669 13.3308 10.7158 13.1592L10.7168 13.1572L11.3496 10.8926C11.4167 10.666 11.4614 10.4215 11.4854 10.1572C11.5078 9.90946 11.5205 9.72417 11.5205 9.6123C11.5204 9.13735 11.3732 8.72765 11.0771 8.39844L10.9404 8.26172L10.7871 8.13867C10.412 7.87204 9.92729 7.74902 9.35742 7.74902ZM10.7656 3.5957C10.3478 3.5957 9.97377 3.72095 9.65527 3.9707L9.52246 4.08496C9.17988 4.40986 8.99805 4.81346 8.99805 5.2793C8.99808 5.6872 9.13596 6.04678 9.40137 6.34668L9.52344 6.47168C9.86887 6.79358 10.2889 6.95605 10.7656 6.95605C11.2433 6.95601 11.6608 6.79402 12.0039 6.47168C12.3481 6.14823 12.5263 5.74565 12.5264 5.2793C12.5264 4.81457 12.3473 4.41065 12.0039 4.08496C11.6615 3.75881 11.2432 3.59575 10.7656 3.5957Z" stroke="black" stroke-width="0.5"/>
</svg>
