<svg width="28" height="28" viewBox="0 0 28 28" fill="none" xmlns="http://www.w3.org/2000/svg">
<path d="M23.814 17.7382C23.8056 16.2766 21.672 14.913 20.4568 14.101L18.7712 12.9754C18.4184 12.7402 17.9508 12.7906 17.6596 13.0958L14.3657 16.5031C14.1652 16.7103 13.8334 16.7117 13.6312 16.5059L10.2872 13.1014C9.9848 12.7962 9.5088 12.7542 9.1588 13.0034L7.5264 14.1654C6.3756 14.9858 4.382 16.3074 4.3736 17.7214L4.31032 26.0836C4.30808 26.3683 4.53824 26.6002 4.823 26.6002H23.354C23.6384 26.6002 23.8686 26.3686 23.8666 26.0841L23.814 17.7382ZM19.3634 20.8574H18.319C18.2101 20.8574 18.1216 20.9459 18.1216 21.0548V22.2938H16.9988V20.8574H15.7598C15.6509 20.8574 15.5624 20.7689 15.5624 20.66V19.932C15.5624 19.8231 15.6509 19.7346 15.7598 19.7346H16.8014C16.9103 19.7346 16.9988 19.6461 16.9988 19.5372V18.4928C16.9988 18.3839 17.0873 18.2954 17.1962 18.2954H17.9242C18.0331 18.2954 18.1216 18.3839 18.1216 18.4928V19.5372C18.1216 19.6461 18.2101 19.7346 18.319 19.7346H19.3634C19.4723 19.7346 19.5608 19.8231 19.5608 19.932V20.66C19.5608 20.7689 19.4723 20.8574 19.3634 20.8574Z" fill="#848484"/>
<path d="M17.1773 12.316C15.3767 13.7202 13.2632 13.8408 10.8871 12.3955C10.8871 12.3955 10.0947 11.0537 10.8603 8.9764C10.9373 8.76752 11.9097 8.2834 11.9097 8.2834C13.2481 7.39944 14.7604 7.36584 16.115 8.1896L17.4089 8.97668C17.4089 8.97668 17.8731 11.3052 17.1773 12.316Z" fill="#848484"/>
<path d="M18.2197 2.99606L18.2001 5.12686L18.1553 5.13246C17.1081 5.27246 16.0553 5.35926 15.0025 5.39286C15.1257 5.20526 15.1985 4.97846 15.1985 4.73766C15.1985 4.07686 14.6609 3.53926 14.0001 3.53926C13.3393 3.53926 12.8017 4.07686 12.8017 4.73766C12.8017 4.97846 12.8745 5.20526 12.9977 5.39286C11.9561 5.35926 10.9173 5.27246 9.88129 5.13526L9.81689 5.12686V2.98206C9.81689 2.11686 10.5197 1.41406 11.3849 1.41406H16.6517C17.5225 1.41406 18.2281 2.12526 18.2197 2.99606Z" fill="#848484"/>
<path d="M17.3796 8.95827C17.3796 8.95827 18.2779 8.37924 18.27 6.29688C18.27 6.29688 18.7687 6.34951 18.7864 6.59451C18.804 6.83951 18.7494 8.70907 17.465 9.82907L17.3796 8.95827Z" fill="#848484"/>
<path d="M10.8741 8.95827C10.8741 8.95827 9.97583 8.37924 9.98367 6.29688C9.98367 6.29688 9.48499 6.34951 9.46735 6.59451C9.44971 6.83951 9.50431 8.70907 10.7887 9.82907L10.8741 8.95827Z" fill="#848484"/>
<path d="M14.9577 4.73763C14.9577 4.99523 14.8569 5.23043 14.6945 5.40123C14.5181 5.58323 14.2717 5.69803 14.0001 5.69803C13.7285 5.69803 13.4821 5.58323 13.3057 5.40123C13.1433 5.23043 13.0425 4.99523 13.0425 4.73763C13.0425 4.20843 13.4709 3.78003 14.0001 3.78003C14.5293 3.78003 14.9577 4.20843 14.9577 4.73763Z" fill="#848484"/>
</svg>
