<svg width="25" height="28" viewBox="0 0 25 28" fill="none" xmlns="http://www.w3.org/2000/svg">
<path fill-rule="evenodd" clip-rule="evenodd" d="M5.82527 10.2814C5.63495 9.75948 5.4173 9.16264 5.65491 8.34367C5.92153 7.42497 6.73462 6.72796 7.09743 5.58932C7.18704 5.30821 7.26159 5.01878 7.32445 4.72497C7.32955 4.70119 7.32012 4.67798 7.2999 4.66438C7.27974 4.65084 7.25468 4.65078 7.23458 4.66438C4.13828 6.7464 2.61791 10.3918 3.18791 13.9606C3.19217 13.9875 3.21375 14.0074 3.24101 14.0096C3.2684 14.0118 3.29289 13.9953 3.30129 13.9693C4.28119 10.9371 5.58772 11.7619 5.93774 11.0848C6.04356 10.8801 5.94201 10.6015 5.82527 10.2814ZM4.97825 22.0545C4.80706 22.2253 4.52946 22.2253 4.35826 22.0545C3.96793 21.6651 3.25639 20.8856 2.91296 20.477C0.970985 18.1668 0 15.3196 0 12.4724C0 5.58423 5.59657 0 12.5 0C19.4034 0 25 5.58423 25 12.4724C25 17.4205 22.0623 21.9236 17.4932 23.9081C17.4748 23.9161 17.4553 23.9145 17.4384 23.9037C17.4215 23.8929 17.4118 23.8759 17.4113 23.8559C17.4051 23.5898 17.3775 23.3289 17.3304 23.0749C17.3255 23.0483 17.3388 23.0226 17.3635 23.0113C18.6084 22.4396 19.7314 21.6582 20.7188 20.673C25.2578 16.144 25.2578 8.80069 20.7188 4.27175C16.1797 -0.257263 8.82027 -0.257263 4.28119 4.27175C-0.00400566 8.54749 -0.260609 15.3664 3.60692 19.9408C3.74924 20.1091 4.40522 20.8421 4.62785 21.0813C4.63909 21.0934 4.65311 21.0996 4.66958 21.0999C4.68605 21.1003 4.70033 21.0945 4.71196 21.0828L8.18684 17.6157C8.35803 17.4449 8.35803 17.1679 8.18684 16.9971C8.01564 16.8262 7.73804 16.8262 7.56684 16.9971L5.67829 18.8814C5.66667 18.8931 5.65239 18.8989 5.63592 18.8985C5.61944 18.8982 5.60536 18.892 5.59418 18.88C4.78587 18.0137 4.17162 17.0324 3.75157 15.9912C3.74763 15.9814 3.74647 15.9722 3.74789 15.9617C3.78064 15.7169 3.81889 15.4851 3.86301 15.2675C3.91573 15.0076 3.98001 14.7475 4.05669 14.4873C4.61124 12.6055 5.20869 12.4118 5.68747 12.2568C6.09234 12.1256 6.44274 12.012 6.71543 11.4846C7.24899 10.4525 6.16405 9.72422 6.49423 8.58623C6.70277 7.86769 7.52821 7.11298 7.92991 5.85239C8.11732 5.26431 8.2413 4.66476 8.33239 4.05722C8.33536 4.03756 8.34666 4.02196 8.36456 4.01326C13.152 1.68249 19.0149 3.78262 21.1588 8.73894C21.1696 8.76395 21.1619 8.79225 21.1402 8.80869C20.6972 9.14304 20.2895 9.53445 19.9503 9.96414C18.042 12.3815 19.2935 13.089 18.6633 14.9199C18.3801 15.7423 17.615 16.752 16.8519 17.7589C16.3008 18.4861 15.7508 19.211 15.3529 19.9043C15.3445 19.9189 15.3318 19.9284 15.3153 19.9322C15.2988 19.936 15.2832 19.933 15.2692 19.9235C13.1148 18.4533 10.184 18.9296 8.59894 20.9932C8.58208 21.0152 8.55314 21.0224 8.52801 21.0107C7.99238 20.7627 7.47717 20.4625 6.9929 20.1137C6.96945 20.0969 6.9378 20.0994 6.91738 20.1198L4.97825 22.0545ZM16.5358 23.9731C16.5358 21.749 14.7289 19.9462 12.4999 19.9462C10.2709 19.9462 8.46411 21.749 8.46411 23.9731C8.46411 26.1972 10.2709 28 12.4999 28C14.7289 28 16.5358 26.1972 16.5358 23.9731ZM13.502 21.7432C13.502 21.5067 13.3081 21.3127 13.0706 21.3127H11.9294C11.8106 21.3127 11.7027 21.3611 11.6246 21.4391L11.6248 21.4393C11.5465 21.5174 11.4979 21.6248 11.4979 21.7432V22.9149C11.4979 22.9471 11.4717 22.9733 11.4395 22.9733H10.2651C10.0275 22.9733 9.8337 23.1667 9.8337 23.4038V24.5425C9.8337 24.661 9.88222 24.7686 9.96032 24.8466L9.96058 24.8463C10.0389 24.9244 10.1464 24.9729 10.2651 24.9729H11.4395C11.4716 24.9729 11.4979 24.9991 11.4979 25.0313V26.203C11.4979 26.4395 11.6919 26.6336 11.9294 26.6336H13.0706C13.1894 26.6336 13.2973 26.5852 13.3754 26.5072L13.3751 26.507C13.4534 26.4288 13.502 26.3215 13.502 26.2031V25.0313C13.502 24.9992 13.5282 24.973 13.5605 24.973H14.7348C14.9718 24.973 15.1662 24.7795 15.1662 24.5425V23.4038C15.1662 23.1667 14.9724 22.9734 14.7348 22.9734H13.5605C13.5283 22.9734 13.502 22.9472 13.502 22.915V21.7432ZM19.7193 13.1931C19.7496 13.7637 19.7814 14.3637 19.4921 15.2037C18.9467 16.7882 17.0222 18.7556 16.1158 20.3338C16.0773 20.401 16.0463 20.4551 16.0228 20.4962C16.0098 20.5191 16.0132 20.5467 16.0316 20.5656C16.1627 20.7009 16.2861 20.8437 16.4011 20.9933C16.4179 21.0152 16.447 21.0225 16.4721 21.0108C20.7595 19.0262 22.8828 14.1843 21.5202 9.72235C21.5143 9.70308 21.5003 9.68928 21.4809 9.68348C21.4616 9.67768 21.4422 9.68168 21.4267 9.69463C21.1364 9.93714 20.8776 10.2017 20.6388 10.5043C19.6436 11.7649 19.6799 12.449 19.7193 13.1931ZM9.35951 8.59165L13.8642 9.49055C13.8838 9.49448 13.9025 9.48888 13.9167 9.47482C15.2382 8.17046 16.3039 7.541 16.9601 7.43922C17.5399 7.3493 17.8553 7.66438 17.7654 8.24292C17.6635 8.8979 17.0332 9.96105 15.7287 11.2769C15.7146 11.2911 15.709 11.3098 15.7129 11.3294L16.6153 15.8314C16.9027 17.2655 15.783 17.7899 14.9755 16.4468L13.389 13.8086C13.38 13.7936 13.3665 13.7843 13.3492 13.7812C13.332 13.7781 13.316 13.7822 13.3024 13.793L11.3032 15.3889C11.29 15.3993 11.2827 15.4133 11.2814 15.43L11.095 17.8417C11.0224 18.7815 10.3315 18.4252 10.046 17.7194L9.31403 15.909C9.30789 15.8938 9.29698 15.8829 9.28173 15.8767L7.46741 15.1463C6.76014 14.8616 6.40282 14.1721 7.3448 14.0997L9.76186 13.9137C9.77859 13.9124 9.79255 13.9051 9.80301 13.892L11.4024 11.8972C11.4133 11.8836 11.4174 11.8676 11.4143 11.8505C11.4112 11.8333 11.4018 11.8197 11.3868 11.8108L8.74274 10.2278C7.39674 9.42209 7.92222 8.30486 9.35951 8.59165Z" fill="#929F6D"/>
</svg>
