<svg width="25" height="25" viewBox="0 0 25 25" fill="none" xmlns="http://www.w3.org/2000/svg">
<path fill-rule="evenodd" clip-rule="evenodd" d="M12.2627 6.6377C9.15609 6.6377 6.6377 9.15609 6.6377 12.2627C6.6377 15.3693 9.15609 17.8877 12.2627 17.8877C15.3693 17.8877 17.8877 15.3693 17.8877 12.2627C17.8845 9.15743 15.368 6.64092 12.2627 6.6377ZM12.2627 16.0127C10.1916 16.0127 8.5127 14.3338 8.5127 12.2627C8.5127 10.1916 10.1916 8.5127 12.2627 8.5127C14.3338 8.5127 16.0127 10.1916 16.0127 12.2627C16.0127 14.3338 14.3338 16.0127 12.2627 16.0127ZM22.5752 12.5158C22.5799 12.3471 22.5799 12.1783 22.5752 12.0096L24.3236 9.8252C24.5096 9.59261 24.5739 9.28553 24.4971 8.99785C24.2104 7.92043 23.7817 6.88596 23.2221 5.92168C23.0735 5.66581 22.8129 5.4951 22.5189 5.46113L19.7393 5.15176C19.6236 5.02988 19.5064 4.9127 19.3877 4.8002L19.0596 2.01348C19.0253 1.71933 18.8542 1.45865 18.5979 1.31035C17.6332 0.751774 16.5988 0.323439 15.5217 0.0365236C15.2338 -0.040009 14.9267 0.0248039 14.6943 0.211133L12.5158 1.9502C12.3471 1.9502 12.1783 1.9502 12.0096 1.9502L9.8252 0.205274C9.59261 0.0193527 9.28553 -0.0450211 8.99785 0.031836C7.92061 0.318977 6.8862 0.747715 5.92168 1.30684C5.66581 1.45541 5.4951 1.71604 5.46113 2.00996L5.15176 4.79434C5.02988 4.91074 4.9127 5.02793 4.8002 5.1459L2.01348 5.46582C1.71933 5.50004 1.45865 5.67122 1.31035 5.92754C0.751774 6.89218 0.323439 7.92657 0.0365236 9.00371C-0.040009 9.29157 0.0248039 9.59867 0.211133 9.83105L1.9502 12.0096C1.9502 12.1783 1.9502 12.3471 1.9502 12.5158L0.205274 14.7002C0.0193527 14.9328 -0.0450211 15.2399 0.031836 15.5275C0.318464 16.605 0.747229 17.6394 1.30684 18.6037C1.45541 18.8596 1.71604 19.0303 2.00996 19.0643L4.78965 19.3736C4.90605 19.4955 5.02324 19.6127 5.14121 19.7252L5.46582 22.5119C5.50004 22.8061 5.67122 23.0667 5.92754 23.215C6.89218 23.7736 7.92657 24.202 9.00371 24.4889C9.29157 24.5654 9.59867 24.5006 9.83105 24.3143L12.0096 22.5752C12.1783 22.5799 12.3471 22.5799 12.5158 22.5752L14.7002 24.3236C14.9328 24.5096 15.2399 24.5739 15.5275 24.4971C16.605 24.2104 17.6394 23.7817 18.6037 23.2221C18.8596 23.0735 19.0303 22.8129 19.0643 22.5189L19.3736 19.7393C19.4955 19.6236 19.6127 19.5064 19.7252 19.3877L22.5119 19.0596C22.8061 19.0253 23.0667 18.8542 23.215 18.5979C23.7736 17.6332 24.202 16.5988 24.4889 15.5217C24.5654 15.2338 24.5006 14.9267 24.3143 14.6943L22.5752 12.5158ZM20.6885 11.7541C20.7084 12.0929 20.7084 12.4325 20.6885 12.7713C20.6745 13.0032 20.7472 13.2321 20.8924 13.4135L22.5553 15.4912C22.3645 16.0976 22.1201 16.6859 21.8252 17.249L19.1768 17.549C18.9461 17.5746 18.7332 17.6849 18.5791 17.8584C18.3535 18.1121 18.1133 18.3524 17.8596 18.5779C17.686 18.732 17.5758 18.9449 17.5502 19.1756L17.2561 21.8217C16.693 22.1168 16.1047 22.3611 15.4982 22.5518L13.4193 20.8889C13.253 20.756 13.0463 20.6836 12.8334 20.6838H12.7771C12.4384 20.7037 12.0987 20.7037 11.76 20.6838C11.528 20.6698 11.2992 20.7425 11.1178 20.8877L9.03418 22.5518C8.42777 22.3609 7.83952 22.1166 7.27637 21.8217L6.97637 19.1768C6.95076 18.9461 6.84053 18.7332 6.66699 18.5791C6.41329 18.3535 6.17304 18.1133 5.94746 17.8596C5.7934 17.686 5.58045 17.5758 5.3498 17.5502L2.70371 17.2549C2.40862 16.6918 2.1643 16.1035 1.97363 15.4971L3.63652 13.4182C3.78172 13.2368 3.85439 13.0079 3.84043 12.776C3.82051 12.4372 3.82051 12.0976 3.84043 11.7588C3.85439 11.5269 3.78172 11.298 3.63652 11.1166L1.97363 9.03418C2.16444 8.42777 2.40876 7.83952 2.70371 7.27637L5.34863 6.97637C5.57928 6.95076 5.79223 6.84053 5.94629 6.66699C6.17186 6.41329 6.41212 6.17304 6.66582 5.94746C6.84005 5.7933 6.95074 5.57986 6.97637 5.34863L7.27051 2.70371C7.8336 2.40862 8.42186 2.1643 9.02832 1.97363L11.1072 3.63652C11.2886 3.78172 11.5175 3.85439 11.7494 3.84043C12.0882 3.82051 12.4278 3.82051 12.7666 3.84043C12.9985 3.85439 13.2274 3.78172 13.4088 3.63652L15.4912 1.97363C16.0976 2.16444 16.6859 2.40876 17.249 2.70371L17.549 5.34863C17.5746 5.57928 17.6849 5.79223 17.8584 5.94629C18.1121 6.17186 18.3524 6.41212 18.5779 6.66582C18.732 6.83936 18.9449 6.94959 19.1756 6.97519L21.8217 7.26934C22.1168 7.83243 22.3611 8.42069 22.5518 9.02715L20.8889 11.1061C20.7423 11.289 20.6695 11.5202 20.685 11.7541H20.6885Z" fill="#1A7345"/>
</svg>
