<svg width="19" height="21" viewBox="0 0 19 21" fill="none" xmlns="http://www.w3.org/2000/svg">
<path d="M2.67969 0.00195312C2.74004 0.00693448 2.80085 0.0069374 2.86133 0.00195312L2.88184 0H16.1602L16.4258 0.0146484C17.0403 0.0824433 17.6103 0.380513 18.0391 0.849609C18.5275 1.38423 18.7957 2.09957 18.7969 2.83789V19.7578C18.7962 20.0731 18.6818 20.3828 18.4668 20.6182C18.2512 20.854 17.9478 20.9992 17.6191 21H4.80176C4.47307 20.9992 4.16969 20.854 3.9541 20.6182C3.7392 20.3829 3.62469 20.0731 3.62402 19.7578V5.67871L3.57422 5.73926C3.42606 5.9034 3.21419 6.00752 2.98145 6.01074H1.15332C0.994088 6.01077 0.839097 5.97537 0.697266 5.91113C0.55612 5.84717 0.428154 5.75539 0.322266 5.63965V5.63867C0.243327 5.55225 0.178352 5.45507 0.12793 5.35156L0.0820312 5.24609C0.0415143 5.13885 0.0152999 5.02591 0.00488281 4.91113L0 4.7959V2.83789L0.0126953 2.5625C0.0716302 1.92318 0.331552 1.31716 0.758789 0.849609C1.24874 0.313591 1.92313 0.00119262 2.6377 0H2.65918L2.67969 0.00195312ZM2.90234 0.5C2.81458 0.507233 2.72644 0.507245 2.63867 0.5C2.07188 0.500905 1.52872 0.748049 1.12793 1.18652C0.727216 1.62493 0.50092 2.21888 0.5 2.83887V4.7959C0.499975 4.88956 0.517103 4.98278 0.549805 5.06934C0.582605 5.15601 0.630777 5.23543 0.691406 5.30176C0.751994 5.36801 0.824175 5.42019 0.90332 5.45605C0.98254 5.49194 1.06758 5.51077 1.15332 5.51074H2.97461C3.06047 5.50955 3.14279 5.47114 3.20312 5.4043C3.26332 5.33747 3.29688 5.24715 3.29688 5.15332C3.29683 5.05946 3.26339 4.96914 3.20312 4.90234C3.14279 4.8355 3.06047 4.79709 2.97461 4.7959H1.15332V2.83887C1.15341 2.40816 1.30958 1.99506 1.58789 1.69043C1.86643 1.38569 2.24476 1.21387 2.63867 1.21387C3.03249 1.21394 3.41 1.38575 3.68848 1.69043C3.96692 1.99508 4.12393 2.40805 4.12402 2.83887V19.7568C4.12444 19.9537 4.19604 20.142 4.32324 20.2812C4.45049 20.4205 4.62279 20.4995 4.80273 20.5H17.6182C17.7981 20.4995 17.9704 20.4205 18.0977 20.2812C18.2249 20.142 18.2965 19.9537 18.2969 19.7568V2.83887C18.296 2.21892 18.0706 1.62492 17.6699 1.18652C17.2691 0.748026 16.726 0.500904 16.1592 0.5H2.90234ZM7.12012 17.3887C7.2057 17.3901 7.28751 17.4285 7.34766 17.4951C7.40783 17.5619 7.44237 17.6523 7.44238 17.7461C7.44238 17.8399 7.40784 17.9302 7.34766 17.9971C7.2875 18.0637 7.20572 18.1021 7.12012 18.1035H6.04297C5.95742 18.1019 5.87544 18.0638 5.81543 17.9971C5.75538 17.9303 5.72168 17.8398 5.72168 17.7461C5.72169 17.6526 5.75561 17.5628 5.81543 17.4961C5.87545 17.4293 5.95738 17.3903 6.04297 17.3887H7.12012ZM16.3779 17.3887C16.4644 17.389 16.5472 17.4272 16.6084 17.4941C16.6695 17.561 16.7038 17.6515 16.7041 17.7461C16.7038 17.8406 16.6695 17.9311 16.6084 17.998C16.5472 18.065 16.4644 18.1032 16.3779 18.1035H8.53711C8.45071 18.1035 8.36782 18.0658 8.30664 17.999C8.24542 17.932 8.21094 17.8408 8.21094 17.7461C8.21095 17.6514 8.24544 17.5601 8.30664 17.4932C8.36782 17.4265 8.45074 17.3887 8.53711 17.3887H16.3779ZM7.12012 15.6172C7.20659 15.6175 7.28943 15.6558 7.35059 15.7227C7.41172 15.7895 7.44601 15.88 7.44629 15.9746C7.44644 16.0215 7.43819 16.068 7.42188 16.1113C7.40554 16.1547 7.38186 16.1944 7.35156 16.2275C7.32122 16.2607 7.28479 16.2868 7.24512 16.3047C7.20548 16.3225 7.16299 16.3322 7.12012 16.332H6.04297C5.95655 16.332 5.87367 16.2943 5.8125 16.2275C5.75128 16.1606 5.7168 16.0693 5.7168 15.9746C5.71683 15.88 5.75138 15.7896 5.8125 15.7227C5.87369 15.6557 5.95644 15.6172 6.04297 15.6172H7.12012ZM16.3779 15.6172C16.4635 15.6186 16.5453 15.657 16.6055 15.7236C16.6656 15.7904 16.6992 15.8809 16.6992 15.9746C16.6992 16.0684 16.6656 16.1588 16.6055 16.2256C16.5453 16.2923 16.4636 16.3306 16.3779 16.332H8.53711C8.45125 16.3308 8.36893 16.2924 8.30859 16.2256C8.24837 16.1588 8.21484 16.0685 8.21484 15.9746C8.21488 15.8807 8.24831 15.7904 8.30859 15.7236C8.36893 15.6568 8.45125 15.6184 8.53711 15.6172H16.3779ZM7.12012 13.8496C7.20573 13.851 7.2875 13.8894 7.34766 13.9561C7.40784 14.0229 7.44238 14.1132 7.44238 14.207C7.44236 14.3008 7.40782 14.3912 7.34766 14.458C7.28751 14.5246 7.20568 14.5631 7.12012 14.5645H6.04297C5.95738 14.563 5.87556 14.5247 5.81543 14.458C5.75528 14.3912 5.72171 14.3008 5.72168 14.207C5.72168 14.1132 5.75525 14.0229 5.81543 13.9561C5.87557 13.8893 5.95733 13.851 6.04297 13.8496H7.12012ZM16.3779 13.8496C16.4636 13.851 16.5453 13.8893 16.6055 13.9561C16.6656 14.0229 16.6992 14.1132 16.6992 14.207C16.6992 14.3008 16.6656 14.3912 16.6055 14.458C16.5453 14.5246 16.4635 14.5631 16.3779 14.5645H8.53711C8.45129 14.5632 8.36887 14.5248 8.30859 14.458C8.24839 14.3912 8.21487 14.3009 8.21484 14.207C8.21484 14.1132 8.24843 14.0229 8.30859 13.9561C8.36887 13.8892 8.45129 13.8509 8.53711 13.8496H16.3779ZM7.12012 12.082C7.20598 12.0832 7.2883 12.1216 7.34863 12.1885C7.40882 12.2553 7.44238 12.3456 7.44238 12.4395C7.44229 12.5333 7.40889 12.6237 7.34863 12.6904C7.28831 12.7572 7.20592 12.7947 7.12012 12.7959H6.04297C5.95728 12.7945 5.87558 12.7562 5.81543 12.6895C5.75541 12.6227 5.72177 12.5331 5.72168 12.4395C5.72168 12.3457 5.75527 12.2553 5.81543 12.1885C5.87558 12.1217 5.95728 12.0835 6.04297 12.082H7.12012ZM16.3779 12.082C16.4636 12.0835 16.5453 12.1217 16.6055 12.1885C16.6656 12.2553 16.6992 12.3457 16.6992 12.4395C16.6991 12.533 16.6655 12.6227 16.6055 12.6895C16.5453 12.7563 16.4636 12.7944 16.3779 12.7959H8.53711C8.45132 12.7946 8.36887 12.7572 8.30859 12.6904C8.24839 12.6237 8.21493 12.5332 8.21484 12.4395C8.21484 12.3457 8.24851 12.2553 8.30859 12.1885C8.36887 12.1216 8.45129 12.0833 8.53711 12.082H16.3779ZM7.12012 10.3105C7.20598 10.3117 7.2883 10.3501 7.34863 10.417C7.40884 10.4838 7.44238 10.5741 7.44238 10.668C7.44231 10.7618 7.40891 10.8522 7.34863 10.9189C7.28831 10.9857 7.20594 11.0232 7.12012 11.0244H6.04297C5.95728 11.023 5.87558 10.9848 5.81543 10.918C5.75542 10.8512 5.72175 10.7616 5.72168 10.668C5.72168 10.5742 5.75525 10.4838 5.81543 10.417C5.87558 10.3502 5.95729 10.312 6.04297 10.3105H7.12012ZM16.3779 10.3105C16.4643 10.3108 16.5473 10.3483 16.6084 10.415C16.6696 10.482 16.7038 10.5733 16.7041 10.668C16.7038 10.7625 16.6695 10.8531 16.6084 10.9199C16.5472 10.9868 16.4644 11.0241 16.3779 11.0244H8.53711C8.45056 11.0244 8.36785 10.9869 8.30664 10.9199C8.24548 10.853 8.21101 10.7626 8.21094 10.668C8.21094 10.5732 8.24542 10.482 8.30664 10.415C8.36783 10.3482 8.45066 10.3105 8.53711 10.3105H16.3779ZM10.7441 2.98242C11.0595 2.9819 11.3655 3.0994 11.6113 3.31543C11.8572 3.53151 12.0282 3.83292 12.0957 4.16992C12.1632 4.50694 12.1231 4.85922 11.9824 5.16797C11.8416 5.47681 11.6081 5.72445 11.3213 5.86816L11.8271 6.56738L12.6465 5.42871C12.6999 5.35462 12.7786 5.3063 12.8643 5.29492C12.9497 5.28369 13.0356 5.3103 13.1035 5.36816C13.1713 5.42735 13.2152 5.51324 13.2256 5.60742C13.2359 5.70149 13.2121 5.79607 13.1592 5.87109L12.2422 7.14648L13.1592 8.4209C13.2103 8.49544 13.2326 8.58923 13.2217 8.68164C13.2107 8.77403 13.1674 8.85823 13.1006 8.91602C13.0338 8.97374 12.9489 9.00084 12.8643 8.99121C12.7795 8.98148 12.7009 8.93598 12.6465 8.86426L11.8271 7.72461L11.0049 8.86426C10.951 8.93777 10.8727 8.98543 10.7871 8.99609C10.7015 9.00674 10.6155 8.97932 10.5479 8.9209C10.4802 8.86246 10.4362 8.7772 10.4258 8.68359C10.4154 8.59 10.4393 8.49531 10.4922 8.4209L11.4092 7.14648L10.5898 6.00684H9.8457V7.96094C9.84435 8.0546 9.81001 8.14421 9.74902 8.20996C9.68794 8.2758 9.60528 8.3125 9.51953 8.3125C9.4338 8.31249 9.35111 8.27579 9.29004 8.20996C9.22908 8.14421 9.19471 8.05457 9.19336 7.96094V3.33887C9.19325 3.29205 9.20147 3.24544 9.21777 3.20215C9.23412 3.15883 9.2578 3.11907 9.28809 3.08594C9.31842 3.05277 9.35488 3.02667 9.39453 3.00879C9.43416 2.99094 9.47668 2.98226 9.51953 2.98242H10.7441ZM9.8457 5.29297H10.7471C10.9392 5.29025 11.123 5.20538 11.2578 5.05566C11.3927 4.90588 11.4672 4.70341 11.4668 4.49316C11.4664 4.28297 11.3903 4.08172 11.2549 3.93262C11.1195 3.78361 10.9361 3.69914 10.7441 3.69727H9.8457V5.29297ZM2.63867 1.71387C2.39302 1.71387 2.14618 1.82054 1.95703 2.02734C1.7908 2.20929 1.68265 2.4551 1.6582 2.72266L1.65332 2.83887V4.2959H2.98145C3.18507 4.29872 3.37265 4.3789 3.51562 4.50879L3.57422 4.56738C3.59183 4.5869 3.6085 4.60715 3.62402 4.62793V2.83887C3.62393 2.52738 3.50991 2.23585 3.31934 2.02734C3.15369 1.84624 2.9445 1.74201 2.73047 1.71875L2.63867 1.71387Z" fill="black"/>
</svg>
