<svg width="28" height="28" viewBox="0 0 28 28" fill="none" xmlns="http://www.w3.org/2000/svg">
<g clip-path="url(#clip0_286_652)">
<path d="M16.4138 7.31259C16.6743 7.0751 16.9471 6.85775 17.2307 6.66038V6.58846C17.2307 3.86401 19.4473 1.64748 22.1717 1.64748V0.000488281C18.7507 0.000488281 15.9308 2.62162 15.6138 5.96096C15.1728 3.6286 12.8321 2.13335 10.504 2.75459C10.2815 3.58852 10.3252 4.47845 10.6346 5.29025C12.8899 5.15086 14.8749 5.89634 16.4138 7.31259Z" fill="#848484"/>
<path d="M27.527 11.5959C26.8297 9.22485 25.4434 7.65845 23.6237 7.18537C20.782 6.44642 18.1078 7.30725 16.4091 9.83116C14.7571 7.3649 12.1948 6.40426 9.19086 7.18537C7.37115 7.65845 5.98498 9.22479 5.28759 11.5959C4.52009 14.2055 4.74798 17.2358 5.53217 19.8405H21.8227V27.5254C24.7509 26.1689 26.6389 22.361 27.4566 19.216C28.156 16.5259 28.181 13.8196 27.527 11.5959ZM13.9995 18.1175H12.3525V15.647H13.9995V18.1175ZM20.5875 18.1175H18.9405V15.647H20.5875V18.1175Z" fill="#848484"/>
<path d="M0.0165248 19.6856C-0.0012078 19.5434 0.000878397 19.4545 0 19.4287V24.4308C0 26.4016 1.59769 27.9993 3.56849 27.9993H5.35273V23.8818H6.99972V27.9993H8.64672V23.0583H10.2937V27.9993H11.9407V23.8818H13.5877V27.9993H15.2347V23.0583H16.8817V27.9993H20.1757V21.4875C19.2503 21.4875 3.60165 21.4875 2.05874 21.4875C1.00878 21.4875 0.143014 20.7013 0.0165248 19.6856Z" fill="#848484"/>
<path d="M2.88222 19.8406H3.81974C3.60119 19.0323 3.43418 18.2225 3.32147 17.3701H2.88222C2.19998 17.3701 1.64697 17.9231 1.64697 18.6054C1.64697 19.2875 2.19998 19.8406 2.88222 19.8406Z" fill="#848484"/>
</g>
<defs>
<clipPath id="clip0_286_652">
<rect width="28" height="28" fill="white"/>
</clipPath>
</defs>
</svg>
