<svg width="22" height="22" viewBox="0 0 22 22" fill="none" xmlns="http://www.w3.org/2000/svg">
<path d="M15.2337 0C15.2849 0 15.3361 0 15.3902 0C15.5158 1.55149 14.9236 2.71075 14.2039 3.55026C13.4977 4.38396 12.5307 5.19255 10.9667 5.06986C10.8623 3.5406 11.4555 2.46731 12.1742 1.62974C12.8408 0.849163 14.0629 0.154569 15.2337 0Z" fill="white"/>
<path d="M19.9684 16.1487C19.9684 16.1641 19.9684 16.1777 19.9684 16.1921C19.5288 17.5234 18.9019 18.6643 18.1367 19.7231C17.4383 20.6843 16.5824 21.9779 15.0541 21.9779C13.7335 21.9779 12.8563 21.1287 11.5028 21.1055C10.0711 21.0823 9.2838 21.8156 7.97479 22.0001C7.82505 22.0001 7.67532 22.0001 7.52848 22.0001C6.56725 21.861 5.79151 21.0997 5.22636 20.4138C3.55992 18.387 2.27216 15.769 2.03258 12.4187C2.03258 12.0903 2.03258 11.7628 2.03258 11.4343C2.13402 9.03657 3.29908 7.08707 4.84767 6.14227C5.66495 5.63992 6.78848 5.21195 8.03952 5.40323C8.57568 5.48631 9.12343 5.66986 9.60356 5.85148C10.0586 6.02634 10.6276 6.33644 11.1666 6.32002C11.5318 6.30939 11.8951 6.11908 12.2631 5.9848C13.3412 5.59548 14.3981 5.14916 15.7912 5.35879C17.4653 5.6119 18.6536 6.35576 19.3878 7.50344C17.9715 8.40477 16.8519 9.76304 17.0432 12.0825C17.2132 14.1895 18.4381 15.4222 19.9684 16.1487Z" fill="white"/>
</svg>
