<svg width="19" height="21" viewBox="0 0 19 21" fill="none" xmlns="http://www.w3.org/2000/svg">
<path d="M13.5254 0.25C14.1398 0.25 14.7271 0.50523 15.1582 0.955078C15.5888 1.40448 15.829 2.0115 15.8291 2.64258V9.23438L15.4902 9.10547L14.4775 8.71973C14.0815 8.56948 13.648 8.56953 13.252 8.71973L9.4873 10.1484H9.48535C9.23427 10.2417 9.00525 10.3927 8.81543 10.5908C8.62562 10.7889 8.4793 11.0293 8.38867 11.2949L8.33105 11.4639H4.60645C4.49491 11.464 4.38598 11.5109 4.30371 11.5967C4.22098 11.683 4.17285 11.8022 4.17285 11.9287C4.17289 12.0552 4.22101 12.1744 4.30371 12.2607C4.38596 12.3465 4.49498 12.3925 4.60645 12.3926H8.2793V14.4355L8.29199 14.8584C8.34707 15.8437 8.58717 16.8094 9.00098 17.6992C9.47386 18.7161 10.1608 19.6078 11.0088 20.3076L11.5449 20.75H2.55371C1.93928 20.75 1.35198 20.4948 0.920898 20.0449C0.490374 19.5955 0.250071 18.9885 0.25 18.3574V2.64258C0.250071 2.01152 0.490374 1.40447 0.920898 0.955078C1.35198 0.50523 1.93928 0.25 2.55371 0.25H13.5254ZM13.6855 9.55078C13.8464 9.52159 14.0128 9.53625 14.168 9.59473H14.1689L17.9336 11.0234H17.9326C18.1147 11.0921 18.2708 11.2168 18.3799 11.3789C18.4888 11.5408 18.5468 11.733 18.5469 11.9287V14.4365C18.5431 15.7807 18.1444 17.0926 17.4043 18.1953C16.6642 19.298 15.617 20.1392 14.4023 20.6045L14.4014 20.6055C14.2242 20.6726 14.0367 20.7058 13.8477 20.7061C13.6546 20.707 13.4636 20.6698 13.2852 20.5947V20.5938C12.0737 20.13 11.0288 19.2918 10.29 18.1924C9.5498 17.0907 9.1517 15.7799 9.14844 14.4365V11.9287C9.14852 11.733 9.20646 11.5409 9.31543 11.3789C9.42445 11.2169 9.57974 11.0921 9.76172 11.0234L13.5264 9.59473L13.6855 9.55078ZM15.5586 13.6045C15.4463 13.6045 15.3358 13.6501 15.2529 13.7363L13.6865 15.3799L13.5049 15.5693L13.3242 15.3799L12.4414 14.4512C12.3587 14.365 12.2489 14.3185 12.1367 14.3184C12.0244 14.3184 11.9139 14.3649 11.8311 14.4512C11.7478 14.5381 11.6992 14.6589 11.6992 14.7861C11.6993 14.9132 11.7479 15.0333 11.8311 15.1201L13.2002 16.5488C13.2411 16.5919 13.2896 16.6257 13.3418 16.6484C13.3938 16.671 13.4492 16.6826 13.5049 16.6826C13.5607 16.6826 13.6168 16.6711 13.6689 16.6484C13.7211 16.6257 13.7687 16.5918 13.8096 16.5488H13.8105L15.8643 14.4053C15.9474 14.3184 15.9961 14.1984 15.9961 14.0713C15.9961 13.9441 15.9474 13.8241 15.8643 13.7373C15.7813 13.6508 15.671 13.6045 15.5586 13.6045ZM4.60645 15.75C4.49504 15.7501 4.38594 15.7962 4.30371 15.8818C4.22107 15.9681 4.17296 16.0875 4.17285 16.2139C4.17285 16.3404 4.22098 16.4605 4.30371 16.5469C4.38594 16.6325 4.49507 16.6786 4.60645 16.6787H6.66016C6.77176 16.6787 6.88151 16.6327 6.96387 16.5469C7.0466 16.4605 7.09473 16.3404 7.09473 16.2139C7.09462 16.0875 7.04651 15.9681 6.96387 15.8818C6.8815 15.796 6.77179 15.75 6.66016 15.75H4.60645ZM4.60645 7.89258C4.49489 7.89271 4.38598 7.93954 4.30371 8.02539C4.221 8.11172 4.17285 8.23095 4.17285 8.35742C4.17292 8.48381 4.22104 8.60318 4.30371 8.68945C4.38595 8.77514 4.49501 8.82116 4.60645 8.82129H11.4521C11.5636 8.82118 11.6726 8.77513 11.7549 8.68945C11.8376 8.60319 11.8866 8.48381 11.8867 8.35742C11.8867 8.23093 11.8376 8.11172 11.7549 8.02539C11.6726 7.93952 11.5637 7.89269 11.4521 7.89258H4.60645ZM4.60645 4.32129C4.49507 4.32142 4.38594 4.36753 4.30371 4.45312C4.22098 4.53946 4.17285 4.65964 4.17285 4.78613C4.17296 4.91247 4.22107 5.03193 4.30371 5.11816C4.38594 5.2038 4.49504 5.24987 4.60645 5.25H11.4521C11.5636 5.24989 11.6726 5.2038 11.7549 5.11816C11.8375 5.03193 11.8866 4.91247 11.8867 4.78613C11.8867 4.65964 11.8376 4.53946 11.7549 4.45312C11.6726 4.36754 11.5635 4.3214 11.4521 4.32129H4.60645Z" fill="white" stroke="black" stroke-width="0.5"/>
</svg>
