<svg width="22" height="22" viewBox="0 0 22 22" fill="none" xmlns="http://www.w3.org/2000/svg">
<path d="M22 11.2445C22 10.34 21.9251 9.68004 21.763 8.99561H11.2245V13.0778H17.4104C17.2857 14.0923 16.6122 15.62 15.1156 16.6466L15.0946 16.7833L18.4267 19.313L18.6576 19.3356C20.7777 17.4167 22 14.5933 22 11.2445Z" fill="#4285F4"/>
<path d="M11.2245 22C14.255 22 16.7992 21.0221 18.6576 19.3355L15.1156 16.6466C14.1678 17.2944 12.8956 17.7466 11.2245 17.7466C8.25623 17.7466 5.73697 15.8278 4.83893 13.1755L4.70729 13.1865L1.24253 15.8143L1.19722 15.9377C3.04301 19.531 6.8344 22 11.2245 22Z" fill="#34A853"/>
<path d="M4.83895 13.1754C4.602 12.491 4.46486 11.7576 4.46486 10.9999C4.46486 10.242 4.602 9.50874 4.82649 8.82431L4.82021 8.67854L1.31203 6.00854L1.19725 6.06205C0.436513 7.55318 0 9.22766 0 10.9999C0 12.7721 0.436513 14.4465 1.19725 15.9376L4.83895 13.1754Z" fill="#FBBC05"/>
<path d="M11.2245 4.2533C13.3321 4.2533 14.7539 5.14552 15.5646 5.89113L18.7324 2.86C16.7868 1.08778 14.255 0 11.2245 0C6.8344 0 3.04301 2.46887 1.19722 6.06217L4.82646 8.82443C5.73697 6.17222 8.25623 4.2533 11.2245 4.2533Z" fill="#EB4335"/>
</svg>
