<svg width="30" height="30" viewBox="0 0 30 30" fill="none" xmlns="http://www.w3.org/2000/svg">
<path d="M15 0C23.2711 3.23297e-07 30 6.72892 30 15C30 23.2711 23.2711 30 15 30C6.72892 30 3.23276e-07 23.2711 0 15C0 6.72892 6.72892 0 15 0ZM15 2.16504C7.92284 2.16504 2.16504 7.92269 2.16504 15C2.16504 18.521 3.59084 21.7149 5.89453 24.0361C7.0447 21.6709 9.46959 20.0381 12.2754 20.0381H17.7246C20.5304 20.0381 22.9553 21.6709 24.1055 24.0361C26.4092 21.7149 27.835 18.521 27.835 15C27.835 7.92269 22.0772 2.16504 15 2.16504ZM15 6.34961C18.1851 6.34966 20.7676 8.93204 20.7676 12.1172C20.7675 15.3023 18.1851 17.8847 15 17.8848C11.8148 17.8848 9.23246 15.3023 9.23242 12.1172C9.23242 8.93202 11.8148 6.34961 15 6.34961Z" fill="#1A7345"/>
</svg>
