<svg width="26" height="28" viewBox="0 0 26 28" fill="none" xmlns="http://www.w3.org/2000/svg">
<path d="M13.4672 3.96899H12.5388V4.88074H13.4672V3.96899Z" fill="#1A7345"/>
<path d="M6.10981 6.58406L5.45337 7.22876L6.10981 7.87346L6.76625 7.22876L6.10981 6.58406Z" fill="#1A7345"/>
<path d="M3.71985 13.5427H2.7915V14.4545H3.71985V13.5427Z" fill="#1A7345"/>
<path d="M6.1103 20.1236L5.45386 20.7683L6.1103 21.413L6.76674 20.7683L6.1103 20.1236Z" fill="#1A7345"/>
<path d="M13.4672 23.1157H12.5388V24.0275H13.4672V23.1157Z" fill="#1A7345"/>
<path d="M19.8962 20.1231L19.2397 20.7678L19.8962 21.4125L20.5526 20.7678L19.8962 20.1231Z" fill="#1A7345"/>
<path d="M23.215 13.5427H22.2866V14.4545H23.215V13.5427Z" fill="#1A7345"/>
<path d="M19.8962 6.58406L19.2397 7.22876L19.8962 7.87346L20.5526 7.22876L19.8962 6.58406Z" fill="#1A7345"/>
<path d="M14.0756 1.27963L14.7254 0.641411L14.0672 0L12.6747 1.36761C12.5877 1.4531 12.5388 1.56903 12.5388 1.68992C12.5388 1.8108 12.5877 1.92673 12.6747 2.01222L14.0672 3.37983L14.7236 2.73523L14.1819 2.20323C17.0756 2.48113 19.7699 3.77571 21.7694 5.84891C23.7688 7.9221 24.9389 10.6345 25.0646 13.4874C25.1902 16.3403 24.263 19.1418 22.4533 21.3768C20.6436 23.6118 18.0732 25.1301 15.2147 25.6523L15.3832 26.549C18.4775 25.9829 21.2575 24.3332 23.207 21.9062C25.1565 19.4793 26.1429 16.4399 25.9832 13.3526C25.8234 10.2654 24.5283 7.3399 22.3384 5.11952C20.1484 2.89914 17.2124 1.53472 14.0756 1.27963Z" fill="#1A7345"/>
<path d="M11.9388 24.6171L11.2824 25.2617L11.8241 25.7937C8.89332 25.5122 6.16843 24.1881 4.16262 22.0706C2.15682 19.9531 1.00853 17.1884 0.934006 14.2973C0.859486 11.4061 1.86388 8.58787 3.75803 6.37343C5.65218 4.15899 8.30537 2.70112 11.2179 2.27439L11.0819 1.37085C7.92801 1.83226 5.05687 3.41629 3.0148 5.82154C0.97273 8.22679 -0.0977564 11.2854 0.00702445 14.4154C0.111805 17.5454 1.38454 20.5283 3.58306 22.7966C5.78159 25.0649 8.75247 26.4603 11.9304 26.7173L11.2806 27.3555L11.9369 28.0001L13.3294 26.6325C13.4165 26.547 13.4653 26.4311 13.4653 26.3102C13.4653 26.1893 13.4165 26.0734 13.3294 25.9879L11.9388 24.6171Z" fill="#1A7345"/>
<path d="M13.9313 12.6307V10.3513H12.0746V12.6307C12.0746 12.7516 12.0257 12.8675 11.9386 12.953C11.8516 13.0385 11.7335 13.0865 11.6104 13.0865H9.28955V14.91H11.6104C11.7335 14.91 11.8516 14.9581 11.9386 15.0436C12.0257 15.129 12.0746 15.245 12.0746 15.3659V17.6453H13.9313V15.3659C13.9313 15.245 13.9802 15.129 14.0672 15.0436C14.1543 14.9581 14.2723 14.91 14.3955 14.91H16.7163V13.0865H14.3955C14.2723 13.0865 14.1543 13.0385 14.0672 12.953C13.9802 12.8675 13.9313 12.7516 13.9313 12.6307Z" fill="#1A7345"/>
<path d="M13.0033 7.61621C11.718 7.61621 10.4616 7.99052 9.39298 8.69181C8.32432 9.39309 7.4914 10.3899 6.99955 11.556C6.5077 12.7222 6.37901 14.0055 6.62975 15.2435C6.88049 16.4815 7.49941 17.6187 8.40823 18.5113C9.31705 19.4039 10.475 20.0117 11.7355 20.258C12.9961 20.5042 14.3027 20.3778 15.4901 19.8948C16.6776 19.4117 17.6925 18.5937 18.4065 17.5442C19.1206 16.4946 19.5017 15.2607 19.5017 13.9984C19.4999 12.3063 18.8146 10.684 17.5963 9.48751C16.3781 8.29101 14.7262 7.61802 13.0033 7.61621ZM17.1809 15.8219H14.86V18.1013C14.86 18.2222 14.8111 18.3381 14.724 18.4236C14.637 18.5091 14.5189 18.5571 14.3958 18.5571H11.6108C11.4877 18.5571 11.3696 18.5091 11.2826 18.4236C11.1955 18.3381 11.1466 18.2222 11.1466 18.1013V15.8219H8.82575C8.70264 15.8219 8.58458 15.7739 8.49753 15.6884C8.41048 15.6029 8.36158 15.4869 8.36158 15.366V12.6308C8.36158 12.5099 8.41048 12.3939 8.49753 12.3084C8.58458 12.223 8.70264 12.1749 8.82575 12.1749H11.1466V9.89557C11.1466 9.77466 11.1955 9.65871 11.2826 9.57322C11.3696 9.48773 11.4877 9.4397 11.6108 9.4397H14.3958C14.5189 9.4397 14.637 9.48773 14.724 9.57322C14.8111 9.65871 14.86 9.77466 14.86 9.89557V12.1749H17.1809C17.304 12.1749 17.422 12.223 17.5091 12.3084C17.5961 12.3939 17.645 12.5099 17.645 12.6308V15.366C17.645 15.4869 17.5961 15.6029 17.5091 15.6884C17.422 15.7739 17.304 15.8219 17.1809 15.8219Z" fill="#1A7345"/>
</svg>
