<svg width="28" height="28" viewBox="0 0 28 28" fill="none" xmlns="http://www.w3.org/2000/svg">
<path d="M2.625 23.3333C2.62806 23.8739 2.84415 24.3914 3.22637 24.7736C3.6086 25.1559 4.12613 25.3719 4.66667 25.375H23.3333C23.8739 25.3719 24.3914 25.1559 24.7736 24.7736C25.1559 24.3914 25.3719 23.8739 25.375 23.3333V12.5417H2.625V23.3333ZM9.88167 17.5C10.0457 17.3361 10.2681 17.2441 10.5 17.2441C10.7319 17.2441 10.9543 17.3361 11.1183 17.5L12.8333 19.18L16.8817 15.1667C17.0461 15.06 17.2416 15.0117 17.4368 15.0294C17.632 15.0472 17.8156 15.1299 17.9581 15.2644C18.1007 15.3989 18.194 15.5773 18.223 15.7712C18.2521 15.965 18.2152 16.163 18.1183 16.3333L13.4517 21C13.2876 21.1639 13.0652 21.2559 12.8333 21.2559C12.6015 21.2559 12.3791 21.1639 12.215 21L9.88167 18.6667C9.73818 18.5062 9.65885 18.2986 9.65885 18.0833C9.65885 17.8681 9.73818 17.6604 9.88167 17.5ZM25.375 5.83333V10.7917H2.625V5.83333C2.62806 5.29279 2.84415 4.77527 3.22637 4.39304C3.6086 4.01082 4.12613 3.79473 4.66667 3.79167H6.125V3.5C6.125 3.26794 6.21719 3.04538 6.38128 2.88128C6.54538 2.71719 6.76794 2.625 7 2.625C7.23206 2.625 7.45462 2.71719 7.61872 2.88128C7.78281 3.04538 7.875 3.26794 7.875 3.5V3.79167H13.125V3.5C13.125 3.26794 13.2172 3.04538 13.3813 2.88128C13.5454 2.71719 13.7679 2.625 14 2.625C14.2321 2.625 14.4546 2.71719 14.6187 2.88128C14.7828 3.04538 14.875 3.26794 14.875 3.5V3.79167H20.125V3.5C20.125 3.26794 20.2172 3.04538 20.3813 2.88128C20.5454 2.71719 20.7679 2.625 21 2.625C21.2321 2.625 21.4546 2.71719 21.6187 2.88128C21.7828 3.04538 21.875 3.26794 21.875 3.5V3.79167H23.3333C23.8739 3.79473 24.3914 4.01082 24.7736 4.39304C25.1559 4.77527 25.3719 5.29279 25.375 5.83333Z" fill="#848484"/>
</svg>
