<svg width="18" height="15" viewBox="0 0 18 15" fill="none" xmlns="http://www.w3.org/2000/svg">
<path fill-rule="evenodd" clip-rule="evenodd" d="M0 7.50049C0 7.9147 0.335787 8.25049 0.75 8.25049H15.4397L9.96937 13.7199C9.67632 14.0129 9.67632 14.4881 9.96937 14.7811C10.2624 15.0742 10.7376 15.0742 11.0306 14.7811L17.7806 8.03111C17.9215 7.89044 18.0006 7.69954 18.0006 7.50049C18.0006 7.30143 17.9215 7.11054 17.7806 6.96986L11.0306 0.219863C10.7376 -0.0731926 10.2624 -0.0731926 9.96937 0.219863C9.67632 0.512919 9.67632 0.988057 9.96937 1.28111L15.4397 6.75049H0.75C0.335787 6.75049 0 7.08628 0 7.50049Z" fill="#848484"/>
</svg>
