<svg width="21" height="21" viewBox="0 0 21 21" fill="none" xmlns="http://www.w3.org/2000/svg">
<path d="M9.96387 0.25L10.7686 0.258789C12.3238 0.293427 13.5577 0.42137 14.5391 0.568359L15.0098 0.642578L15.0117 0.643555C17.0065 1.00002 18.8092 2.77323 19.25 4.77344L19.2891 4.96777V4.96973C19.4884 6.18165 19.6744 7.82771 19.6768 10.0713V10.0723C19.6756 10.964 19.6459 11.7612 19.5977 12.4746L19.5664 12.9385L19.1973 12.6562C18.3768 12.0315 17.3833 11.6934 16.3379 11.6934C15.0647 11.6934 13.8688 12.1943 12.9678 13.1055C12.0666 14.0169 11.5704 15.2285 11.5703 16.5186C11.5703 17.5783 11.9054 18.5837 12.5234 19.4141L12.7969 19.7812L12.3398 19.8135C11.8108 19.8501 11.2351 19.8754 10.6084 19.8867L9.96387 19.8936C7.74483 19.8908 6.11667 19.7027 4.91797 19.501L4.91504 19.5C2.85602 19.1319 1.00174 17.2542 0.638672 15.1758L0.637695 15.1738C0.438314 13.9619 0.252747 12.3157 0.25 10.0723V10.0713C0.252721 7.82773 0.438312 6.18172 0.637695 4.96973L0.638672 4.9668C1.00191 2.88843 2.85643 1.01052 4.91504 0.642578H4.91699C6.11565 0.440847 7.7441 0.252369 9.96289 0.25H9.96387ZM5.28711 10.002C4.82334 10.0022 4.44259 10.3833 4.44238 10.8594C4.44238 11.3356 4.82321 11.7176 5.28711 11.7178H10.7773C11.2414 11.7178 11.623 11.3357 11.623 10.8594C11.6228 10.3832 11.2413 10.002 10.7773 10.002H5.28711ZM5.28711 5.37598C4.82327 5.37618 4.44249 5.75728 4.44238 6.2334C4.44238 6.70961 4.82321 7.0916 5.28711 7.0918H14.6396C15.1037 7.09176 15.4854 6.70971 15.4854 6.2334C15.4852 5.75718 15.1036 5.37602 14.6396 5.37598H5.28711Z" stroke="black" stroke-width="0.5"/>
<path d="M16.3379 12.2876C18.6525 12.2877 20.5234 14.1849 20.5234 16.519C20.5233 18.8531 18.6524 20.7503 16.3379 20.7505C14.0232 20.7505 12.1515 18.8532 12.1514 16.519C12.1514 14.1848 14.0232 12.2876 16.3379 12.2876ZM16.3379 16.0435C16.0736 16.0435 15.8537 16.2614 15.8535 16.5356V18.4946C15.8537 18.7688 16.0736 18.9868 16.3379 18.9868C16.602 18.9867 16.8211 18.7687 16.8213 18.4946V16.5356C16.8211 16.2615 16.602 16.0436 16.3379 16.0435ZM16.3301 14.0513C16.1722 14.0517 16.0591 14.0652 15.9795 14.0786C15.9328 14.0888 15.8767 14.1438 15.8662 14.1948L15.8477 14.3433C15.8426 14.4021 15.8389 14.4712 15.8389 14.5513C15.8393 14.7114 15.8529 14.8258 15.8662 14.9067C15.8768 14.9588 15.9351 15.0155 15.9824 15.0239H15.9814C16.062 15.0374 16.1739 15.0503 16.3301 15.0503L16.5352 15.0415C16.592 15.0366 16.6394 15.0305 16.6787 15.0239L16.7158 15.0093C16.7531 14.9869 16.7878 14.9442 16.7949 14.9048C16.8083 14.8229 16.8213 14.7095 16.8213 14.5513L16.8125 14.3433C16.8076 14.2857 16.8014 14.2377 16.7949 14.1978L16.7793 14.1577C16.7569 14.1195 16.7162 14.0851 16.6807 14.0776C16.5999 14.0641 16.4873 14.0513 16.3301 14.0513Z" stroke="black" stroke-width="0.5"/>
</svg>
