<svg width="20" height="20" viewBox="0 0 20 20" fill="none" xmlns="http://www.w3.org/2000/svg">
<mask id="path-1-inside-1_330_1021" fill="white">
<path d="M9.84863 0C15.2791 0 19.7744 4.46836 19.7744 9.96094C19.7744 15.4535 15.2791 20 9.84863 20C4.41814 20 0 15.4535 0 9.96094C0 4.46837 4.41814 2.07498e-05 9.84863 0ZM9.92578 3.51562C6.41205 3.5157 3.55371 6.40704 3.55371 9.96094C3.55371 13.5148 6.41205 16.4062 9.92578 16.4062C11.3418 16.4062 12.6812 15.9463 13.8008 15.0771C14.4055 14.6075 13.7058 13.6766 13.0947 14.1484C12.18 14.859 11.0843 15.2344 9.92578 15.2344C7.05077 15.2343 4.71191 12.8688 4.71191 9.96094C4.71191 7.05305 7.05077 4.68757 9.92578 4.6875C12.574 4.6875 15.1396 6.62535 15.1396 10.5469C15.1396 11.1928 14.62 11.7186 13.9814 11.7188C13.3427 11.7188 12.8223 11.1929 12.8223 10.5469V7.61719C12.8223 7.29332 12.5634 7.03125 12.2432 7.03125C11.923 7.03126 11.6641 7.29333 11.6641 7.61719V7.63184C11.1784 7.26005 10.5803 7.03125 9.92578 7.03125C8.32874 7.03132 7.0293 8.34563 7.0293 9.96094C7.0293 11.5762 8.32874 12.8906 9.92578 12.8906C10.7891 12.8906 11.5567 12.4987 12.0879 11.8906C12.5075 12.4936 13.1985 12.8906 13.9814 12.8906C15.2593 12.8905 16.2988 11.8394 16.2988 10.5469C16.2988 5.90371 13.1274 3.51562 9.92578 3.51562ZM9.92578 8.20312C10.8841 8.20312 11.6641 8.99164 11.6641 9.96094C11.6641 10.9302 10.8841 11.7188 9.92578 11.7188C8.9675 11.7187 8.1875 10.9302 8.1875 9.96094C8.1875 8.99168 8.9675 8.2032 9.92578 8.20312Z"/>
</mask>
<path d="M9.84863 0C15.2791 0 19.7744 4.46836 19.7744 9.96094C19.7744 15.4535 15.2791 20 9.84863 20C4.41814 20 0 15.4535 0 9.96094C0 4.46837 4.41814 2.07498e-05 9.84863 0ZM9.92578 3.51562C6.41205 3.5157 3.55371 6.40704 3.55371 9.96094C3.55371 13.5148 6.41205 16.4062 9.92578 16.4062C11.3418 16.4062 12.6812 15.9463 13.8008 15.0771C14.4055 14.6075 13.7058 13.6766 13.0947 14.1484C12.18 14.859 11.0843 15.2344 9.92578 15.2344C7.05077 15.2343 4.71191 12.8688 4.71191 9.96094C4.71191 7.05305 7.05077 4.68757 9.92578 4.6875C12.574 4.6875 15.1396 6.62535 15.1396 10.5469C15.1396 11.1928 14.62 11.7186 13.9814 11.7188C13.3427 11.7188 12.8223 11.1929 12.8223 10.5469V7.61719C12.8223 7.29332 12.5634 7.03125 12.2432 7.03125C11.923 7.03126 11.6641 7.29333 11.6641 7.61719V7.63184C11.1784 7.26005 10.5803 7.03125 9.92578 7.03125C8.32874 7.03132 7.0293 8.34563 7.0293 9.96094C7.0293 11.5762 8.32874 12.8906 9.92578 12.8906C10.7891 12.8906 11.5567 12.4987 12.0879 11.8906C12.5075 12.4936 13.1985 12.8906 13.9814 12.8906C15.2593 12.8905 16.2988 11.8394 16.2988 10.5469C16.2988 5.90371 13.1274 3.51562 9.92578 3.51562ZM9.92578 8.20312C10.8841 8.20312 11.6641 8.99164 11.6641 9.96094C11.6641 10.9302 10.8841 11.7188 9.92578 11.7188C8.9675 11.7187 8.1875 10.9302 8.1875 9.96094C8.1875 8.99168 8.9675 8.2032 9.92578 8.20312Z" fill="white"/>
<path d="M9.84863 0V-0.5H9.84863L9.84863 0ZM9.84863 20L9.84863 20.5H9.84863V20ZM9.92578 3.51562V3.01562H9.92577L9.92578 3.51562ZM9.92578 16.4062L9.92577 16.9062H9.92578V16.4062ZM13.8008 15.0771L14.1074 15.4721L14.1075 15.472L13.8008 15.0771ZM13.0947 14.1484L12.7892 13.7527L12.788 13.7536L13.0947 14.1484ZM9.92578 15.2344L9.92577 15.7344H9.92578V15.2344ZM9.92578 4.6875V4.1875H9.92577L9.92578 4.6875ZM13.9814 11.7188V12.2188H13.9816L13.9814 11.7188ZM12.2432 7.03125V6.53125H12.2432L12.2432 7.03125ZM11.6641 7.63184L11.3601 8.02884L12.1641 8.64434V7.63184H11.6641ZM9.92578 7.03125V6.53125H9.92576L9.92578 7.03125ZM9.92578 12.8906L9.92576 13.3906H9.92578V12.8906ZM12.0879 11.8906L12.4983 11.605L12.1325 11.0795L11.7113 11.5617L12.0879 11.8906ZM13.9814 12.8906V13.3906H13.9815L13.9814 12.8906ZM9.92578 8.20312V7.70312H9.92574L9.92578 8.20312ZM9.92578 11.7188L9.92574 12.2188H9.92578V11.7188ZM9.84863 0V0.5C15.0027 0.5 19.2744 4.74423 19.2744 9.96094H19.7744H20.2744C20.2744 4.19249 15.5556 -0.5 9.84863 -0.5V0ZM19.7744 9.96094H19.2744C19.2744 15.1827 14.9977 19.5 9.84863 19.5V20V20.5C15.5606 20.5 20.2744 15.7243 20.2744 9.96094H19.7744ZM9.84863 20L9.84863 19.5C4.70464 19.5 0.5 15.1878 0.5 9.96094H0H-0.5C-0.5 15.7192 4.13164 20.5 9.84863 20.5L9.84863 20ZM0 9.96094H0.5C0.5 4.73916 4.6996 0.50002 9.84863 0.5L9.84863 0L9.84863 -0.5C4.13667 -0.499978 -0.5 4.19758 -0.5 9.96094H0ZM9.92578 3.51562L9.92577 3.01562C6.13054 3.0157 3.05371 6.1363 3.05371 9.96094H3.55371H4.05371C4.05371 6.67777 6.69357 4.01569 9.92579 4.01562L9.92578 3.51562ZM3.55371 9.96094H3.05371C3.05371 13.7856 6.13054 16.9062 9.92577 16.9062L9.92578 16.4062L9.92579 15.9062C6.69357 15.9062 4.05371 13.2441 4.05371 9.96094H3.55371ZM9.92578 16.4062V16.9062C11.4531 16.9062 12.9004 16.4091 14.1074 15.4721L13.8008 15.0771L13.4942 14.6822C12.4621 15.4834 11.2304 15.9062 9.92578 15.9062V16.4062ZM13.8008 15.0771L14.1075 15.472C14.3676 15.2701 14.5105 14.9942 14.5304 14.7014C14.5494 14.4208 14.4538 14.1583 14.3025 13.9582C14.1513 13.7582 13.9238 13.5934 13.6454 13.5381C13.3542 13.4802 13.0502 13.5511 12.7892 13.7527L13.0947 14.1484L13.4003 14.5442C13.4262 14.5242 13.4413 14.52 13.4446 14.5192C13.4478 14.5184 13.4489 14.5186 13.4504 14.5189C13.4562 14.52 13.4804 14.5289 13.5048 14.5613C13.5293 14.5936 13.5334 14.6224 13.5327 14.6337C13.5324 14.6379 13.5316 14.6411 13.5293 14.6453C13.527 14.6495 13.5188 14.6631 13.4941 14.6823L13.8008 15.0771ZM13.0947 14.1484L12.788 13.7536C11.961 14.3959 10.9732 14.7344 9.92578 14.7344V15.2344V15.7344C11.1953 15.7344 12.3989 15.322 13.4014 14.5433L13.0947 14.1484ZM9.92578 15.2344L9.92579 14.7344C7.33224 14.7343 5.21191 12.598 5.21191 9.96094H4.71191H4.21191C4.21191 13.1396 6.7693 15.7343 9.92577 15.7344L9.92578 15.2344ZM4.71191 9.96094H5.21191C5.21191 7.32384 7.33224 5.18757 9.92579 5.1875L9.92578 4.6875L9.92577 4.1875C6.7693 4.18758 4.21191 6.78227 4.21191 9.96094H4.71191ZM9.92578 4.6875V5.1875C11.1288 5.1875 12.3011 5.62709 13.1718 6.49977C14.0384 7.36829 14.6396 8.69992 14.6396 10.5469H15.1396H15.6396C15.6396 8.47231 14.9581 6.87425 13.8797 5.79346C12.8055 4.71683 11.371 4.1875 9.92578 4.1875V4.6875ZM15.1396 10.5469H14.6396C14.6396 10.9221 14.3384 11.2187 13.9813 11.2188L13.9814 11.7188L13.9816 12.2188C14.9016 12.2185 15.6396 11.4634 15.6396 10.5469H15.1396ZM13.9814 11.7188V11.2188C13.6239 11.2188 13.3223 10.9218 13.3223 10.5469H12.8223H12.3223C12.3223 11.464 13.0616 12.2188 13.9814 12.2188V11.7188ZM12.8223 10.5469H13.3223V7.61719H12.8223H12.3223V10.5469H12.8223ZM12.8223 7.61719H13.3223C13.3223 7.02279 12.8451 6.53125 12.2432 6.53125V7.03125V7.53125C12.2816 7.53125 12.3223 7.56385 12.3223 7.61719H12.8223ZM12.2432 7.03125L12.2432 6.53125C11.6412 6.53127 11.1641 7.02279 11.1641 7.61719H11.6641H12.1641C12.1641 7.56387 12.2047 7.53125 12.2432 7.53125L12.2432 7.03125ZM11.6641 7.61719H11.1641V7.63184H11.6641H12.1641V7.61719H11.6641ZM11.6641 7.63184L11.968 7.23483C11.4034 6.80254 10.7001 6.53125 9.92578 6.53125V7.03125V7.53125C10.4605 7.53125 10.9535 7.71756 11.3601 8.02884L11.6641 7.63184ZM9.92578 7.03125L9.92576 6.53125C8.04725 6.53133 6.5293 8.07486 6.5293 9.96094H7.0293H7.5293C7.5293 8.6164 8.61023 7.53131 9.9258 7.53125L9.92578 7.03125ZM7.0293 9.96094H6.5293C6.5293 11.847 8.04725 13.3905 9.92576 13.3906L9.92578 12.8906L9.9258 12.3906C8.61023 12.3906 7.5293 11.3055 7.5293 9.96094H7.0293ZM9.92578 12.8906V13.3906C10.9457 13.3906 11.8468 12.9267 12.4645 12.2196L12.0879 11.8906L11.7113 11.5617C11.2667 12.0707 10.6325 12.3906 9.92578 12.3906V12.8906ZM12.0879 11.8906L11.6775 12.1762C12.1844 12.9046 13.0243 13.3906 13.9814 13.3906V12.8906V12.3906C13.3726 12.3906 12.8306 12.0825 12.4983 11.605L12.0879 11.8906ZM13.9814 12.8906L13.9815 13.3906C15.5407 13.3904 16.7988 12.1103 16.7988 10.5469H16.2988H15.7988C15.7988 11.5685 14.9779 12.3905 13.9814 12.3906L13.9814 12.8906ZM16.2988 10.5469H16.7988C16.7988 8.10545 15.9618 6.21489 14.6641 4.93418C13.3715 3.6585 11.6494 3.01562 9.92578 3.01562V3.51562V4.01562C11.4038 4.01562 12.8682 4.5668 13.9617 5.64594C15.0501 6.72007 15.7988 8.34514 15.7988 10.5469H16.2988ZM9.92578 8.20312V8.70312C10.6028 8.70312 11.1641 9.26254 11.1641 9.96094H11.6641H12.1641C12.1641 8.72075 11.1655 7.70312 9.92578 7.70312V8.20312ZM11.6641 9.96094H11.1641C11.1641 10.6593 10.6028 11.2188 9.92578 11.2188V11.7188V12.2188C11.1655 12.2188 12.1641 11.2011 12.1641 9.96094H11.6641ZM9.92578 11.7188L9.92582 11.2188C9.24883 11.2187 8.6875 10.6593 8.6875 9.96094H8.1875H7.6875C7.6875 11.2011 8.68616 12.2187 9.92574 12.2188L9.92578 11.7188ZM8.1875 9.96094H8.6875C8.6875 9.26262 9.24883 8.70318 9.92582 8.70312L9.92578 8.20312L9.92574 7.70312C8.68616 7.70322 7.6875 8.72075 7.6875 9.96094H8.1875Z" fill="black" mask="url(#path-1-inside-1_330_1021)"/>
</svg>
