<svg width="30" height="30" viewBox="0 0 30 30" fill="none" xmlns="http://www.w3.org/2000/svg">
<g clip-path="url(#clip0_332_1409)">
<path d="M29.093 7.60898C28.3055 4.70977 25.2908 1.69453 22.3916 0.907617C20.6139 0.464062 18.2326 0.00761719 15 0C11.7674 0.00820312 9.38613 0.464062 7.6084 0.907617C4.70977 1.69512 1.69453 4.70977 0.907031 7.60898C0.464062 9.38613 0.00761719 11.768 0 15C0.00761719 18.2326 0.464062 20.6145 0.907031 22.3916C1.69453 25.2908 4.70977 28.3055 7.6084 29.093C9.38613 29.5365 11.7686 29.9924 15 30.0006C18.232 29.9924 20.6139 29.5365 22.3916 29.093C25.2908 28.3055 28.3055 25.2908 29.093 22.3916C29.5359 20.6145 29.9924 18.2314 30 15C29.9924 11.768 29.5359 9.38613 29.093 7.60898ZM24.0316 15.9375H8.2166L13.1385 20.8594C13.227 20.9457 13.2976 21.0488 13.346 21.1627C13.3944 21.2765 13.4197 21.3988 13.4205 21.5225C13.4213 21.6462 13.3975 21.7688 13.3506 21.8832C13.3036 21.9977 13.2344 22.1016 13.1469 22.1891C13.0595 22.2766 12.9556 22.3459 12.8411 22.3929C12.7267 22.4399 12.6041 22.4637 12.4804 22.463C12.3567 22.4623 12.2344 22.437 12.1206 22.3886C12.0067 22.3403 11.9036 22.2698 11.8172 22.1812L5.31563 15.6791C5.22635 15.5899 5.15553 15.484 5.10721 15.3674C5.05889 15.2509 5.03402 15.1259 5.03402 14.9997C5.03402 14.8735 5.05889 14.7486 5.10721 14.632C5.15553 14.5154 5.22635 14.4095 5.31563 14.3203L11.8148 7.82285C11.9942 7.66926 12.2249 7.58901 12.4608 7.59812C12.6968 7.60724 12.9206 7.70505 13.0876 7.87201C13.2545 8.03897 13.3523 8.26279 13.3614 8.49874C13.3706 8.73469 13.2903 8.96538 13.1367 9.14473L8.21484 14.0666H24.0316C24.2795 14.0666 24.5172 14.1651 24.6925 14.3403C24.8677 14.5156 24.9662 14.7533 24.9662 15.0012C24.9662 15.249 24.8677 15.4867 24.6925 15.662C24.5172 15.8373 24.2795 15.9357 24.0316 15.9357V15.9375Z" fill="white"/>
</g>
<defs>
<clipPath id="clip0_332_1409">
<rect width="30" height="30" fill="white"/>
</clipPath>
</defs>
</svg>
