<svg width="20" height="20" viewBox="0 0 20 20" fill="none" xmlns="http://www.w3.org/2000/svg">
<path d="M18.1809 10.7368V13.6421C18.1809 17.1579 15.3401 20 11.826 20C8.31185 20 5.45005 17.1579 5.45005 13.6421V12.6526C2.33573 12.2105 0 9.51579 0 6.35789V0.905263C0 0.4 0.39981 0 0.904834 0H3.64038C4.1454 0 4.54521 0.4 4.54521 0.905263C4.54521 1.41053 4.1454 1.81053 3.64038 1.81053H1.83071V6.35789C1.83071 8.86316 3.87185 10.9053 6.37592 10.9053C8.88 10.9053 10.9211 8.86316 10.9211 6.3579V1.81053H9.11147C8.60644 1.81053 8.20663 1.41053 8.20663 0.905263C8.20663 0.4 8.60645 0 9.11147 0H11.847C12.3099 0 12.7308 0.4 12.7308 0.905263V6.35789C12.7308 9.51579 10.3951 12.1895 7.28076 12.6526V13.6421C7.28076 16.1474 9.32189 18.1895 11.826 18.1895C14.33 18.1895 16.3712 16.1474 16.3712 13.6421V10.7368C14.9613 10.2316 14.2038 8.67368 14.7088 7.26316C15.2138 5.85263 16.771 5.09474 18.1808 5.6C19.5907 6.10526 20.3482 7.66316 19.8432 9.07368C19.5697 9.85263 18.9384 10.4632 18.1809 10.7368Z" fill="#1A7345"/>
</svg>
