<svg width="30" height="28" viewBox="0 0 30 28" fill="none" xmlns="http://www.w3.org/2000/svg">
<path d="M27.0397 1.70746C25.616 0.590311 23.786 0 21.7481 0C19.1102 0 16.5991 0.980923 14.9998 2.57169C13.4005 0.980923 10.8894 0 8.25197 0C6.2141 0 4.38504 0.590311 2.9619 1.70795C-1.08944 4.88997 -0.405926 10.3405 1.58462 14.3799C3.51759 18.3075 9.16284 24.6603 14.4856 27.8574C14.6437 27.9526 14.8217 28 14.9998 28C15.1779 28 15.356 27.9526 15.514 27.8574C20.8368 24.6603 26.482 18.3075 28.415 14.3804C30.4056 10.3405 31.0896 4.88997 27.0397 1.70746Z" fill="url(#paint0_linear_321_993)"/>
<path d="M16.9982 20.9995H13.0015C12.4497 20.9995 12.0023 20.5518 12.0023 19.9995V16.9997H9.00479C8.453 16.9997 8.00562 16.5519 8.00562 15.9997V11.9998C8.00562 11.4476 8.453 10.9999 9.00479 10.9999H12.0023V7.99997C12.0023 7.44774 12.4497 7 13.0015 7H16.9982C17.55 7 17.9974 7.44774 17.9974 7.99997V10.9999H20.9949C21.5467 10.9999 21.9941 11.4476 21.9941 11.9998V15.9997C21.9941 16.5519 21.5467 16.9997 20.9949 16.9997H17.9974V19.9995C17.9974 20.5518 17.55 20.9995 16.9982 20.9995Z" fill="url(#paint1_linear_321_993)"/>
<defs>
<linearGradient id="paint0_linear_321_993" x1="0.000196225" y1="14" x2="30.0004" y2="14" gradientUnits="userSpaceOnUse">
<stop stop-color="#42A5F5"/>
<stop offset="1" stop-color="#1E88E5"/>
</linearGradient>
<linearGradient id="paint1_linear_321_993" x1="8.00562" y1="13.9998" x2="21.9941" y2="13.9998" gradientUnits="userSpaceOnUse">
<stop stop-color="#BBDEFB"/>
<stop offset="1" stop-color="#64B5F6"/>
</linearGradient>
</defs>
</svg>
