<svg width="30" height="30" viewBox="0 0 30 30" fill="none" xmlns="http://www.w3.org/2000/svg">
<g clip-path="url(#clip0_323_1000)">
<path d="M21.25 5V11.725C21.251 14.5513 20.4224 17.3157 18.867 19.6755C17.3116 22.0353 15.0977 23.8866 12.5 25H10C7.40323 23.8853 5.1903 22.0336 3.63509 19.6741C2.07988 17.3146 1.25064 14.5509 1.25 11.725V5L7.5 1.25H13.75L21.25 5Z" fill="#61C5FA"/>
<path d="M12.7625 26.25C9.28751 26.25 9.83751 26.25 9.5125 26.15C6.68786 24.9423 4.28036 22.9312 2.58916 20.3666C0.897962 17.802 -0.00238302 14.797 4.73702e-06 11.725V4.225L7.15 0H14.05L22.5 4.225V11.725C22.5036 14.8395 21.5793 17.8846 19.8449 20.4716C18.1106 23.0585 15.645 25.0702 12.7625 26.25ZM10.2625 23.75H12.2375C14.5526 22.7068 16.5169 21.0169 17.8941 18.8835C19.2712 16.7501 20.0025 14.2643 20 11.725V5.775L13.45 2.5H7.85001L2.5 5.7125V11.725C2.49748 14.2643 3.2288 16.7501 4.60595 18.8835C5.9831 21.0169 7.94742 22.7068 10.2625 23.75Z" fill="#468FF1"/>
<path d="M22.5 30C26.6421 30 30 26.6421 30 22.5C30 18.3579 26.6421 15 22.5 15C18.3579 15 15 18.3579 15 22.5C15 26.6421 18.3579 30 22.5 30Z" fill="#6DEDD4"/>
<path d="M22.5 25.5123L19.1125 22.1373L20.8875 20.3623L22.5 21.9873L25.3625 19.1123L27.1375 20.8873L22.5 25.5123Z" fill="white"/>
<path d="M17.5 10H13.75V6.25H8.75V10H5V15H8.75V18.75H13.75V15H17.5V10Z" fill="white"/>
</g>
<defs>
<clipPath id="clip0_323_1000">
<rect width="30" height="30" fill="white"/>
</clipPath>
</defs>
</svg>
