<svg width="48" height="48" viewBox="0 0 48 48" fill="none" xmlns="http://www.w3.org/2000/svg">
<g filter="url(#filter0_d_146_603)">
<circle cx="24" cy="24" r="20" fill="white"/>
</g>
<path fill-rule="evenodd" clip-rule="evenodd" d="M27.3389 32.251C27.0224 33.8175 25.6452 35.001 23.999 35.001C22.3528 35.0008 20.9754 33.8175 20.6592 32.251H27.3389ZM23.999 13.001C24.5007 13.001 24.9081 13.4102 24.9082 13.917V14.9072C27.9863 15.3546 30.3623 18.0252 30.3623 21.251V23.8066C30.3623 25.6208 31.1508 27.3333 32.5254 28.5049C32.8871 28.8174 33.0898 29.2612 33.0898 29.7305C33.0898 30.6152 32.3762 31.335 31.499 31.335H16.499C15.6219 31.3347 14.9083 30.615 14.9082 29.7305C14.9082 29.2611 15.1111 28.817 15.4648 28.5117C16.8473 27.3329 17.6357 25.6207 17.6357 23.8066V21.251C17.6357 18.0252 20.011 15.3546 23.0898 14.9072V13.917C23.0899 13.4102 23.4973 13.0011 23.999 13.001ZM17.3271 13.9561C17.6825 13.5977 18.2579 13.5977 18.6133 13.9561C18.9688 14.3146 18.9688 14.8946 18.6133 15.2529C16.8106 17.0708 15.8174 19.4883 15.8174 22.0596C15.8171 22.5654 15.4099 22.9756 14.9082 22.9756C14.4068 22.9754 14.0002 22.5653 14 22.0596C14 18.9988 15.1809 16.1204 17.3271 13.9561ZM29.3848 13.9561C29.7401 13.5977 30.3155 13.5977 30.6709 13.9561C32.8173 16.1204 33.999 18.9988 33.999 22.0596C33.9988 22.5653 33.5914 22.9754 33.0898 22.9756C32.5881 22.9756 32.1809 22.5654 32.1807 22.0596C32.1807 19.4883 31.1874 17.0718 29.3848 15.2529C29.0294 14.8946 29.0294 14.3146 29.3848 13.9561Z" fill="#1A7345"/>
<defs>
<filter id="filter0_d_146_603" x="0" y="0" width="48" height="48" filterUnits="userSpaceOnUse" color-interpolation-filters="sRGB">
<feFlood flood-opacity="0" result="BackgroundImageFix"/>
<feColorMatrix in="SourceAlpha" type="matrix" values="0 0 0 0 0 0 0 0 0 0 0 0 0 0 0 0 0 0 127 0" result="hardAlpha"/>
<feOffset/>
<feGaussianBlur stdDeviation="2"/>
<feComposite in2="hardAlpha" operator="out"/>
<feColorMatrix type="matrix" values="0 0 0 0 0 0 0 0 0 0 0 0 0 0 0 0 0 0 0.25 0"/>
<feBlend mode="normal" in2="BackgroundImageFix" result="effect1_dropShadow_146_603"/>
<feBlend mode="normal" in="SourceGraphic" in2="effect1_dropShadow_146_603" result="shape"/>
</filter>
</defs>
</svg>
