<svg width="24" height="24" viewBox="0 0 24 24" fill="none" xmlns="http://www.w3.org/2000/svg">
<path d="M21.9 6.20804C21.6457 6.08422 21.3613 6.03549 21.0802 6.06755C20.7991 6.0996 20.533 6.21113 20.313 6.38904L17.75 8.43904V8.00004C17.8088 7.49338 17.7522 6.98 17.5845 6.4983C17.4168 6.0166 17.1423 5.57906 16.7817 5.2184C16.421 4.85774 15.9835 4.5833 15.5018 4.4156C15.0201 4.24791 14.5067 4.19131 14 4.25004H5.00004C4.49338 4.19131 3.98 4.24791 3.4983 4.4156C3.0166 4.5833 2.57906 4.85774 2.2184 5.2184C1.85774 5.57906 1.5833 6.0166 1.4156 6.4983C1.24791 6.98 1.19131 7.49338 1.25004 8.00004V16C1.19131 16.5067 1.24791 17.0201 1.4156 17.5018C1.5833 17.9835 1.85774 18.421 2.2184 18.7817C2.57906 19.1423 3.0166 19.4168 3.4983 19.5845C3.98 19.7522 4.49338 19.8088 5.00004 19.75H14C14.5067 19.8088 15.0201 19.7522 15.5018 19.5845C15.9835 19.4168 16.421 19.1423 16.7817 18.7817C17.1423 18.421 17.4168 17.9835 17.5845 17.5018C17.7522 17.0201 17.8088 16.5067 17.75 16V15.561L20.313 17.611C20.5775 17.8246 20.9071 17.9411 21.247 17.941C21.4731 17.9407 21.6962 17.8898 21.9 17.792C22.1555 17.6704 22.3711 17.4786 22.5216 17.239C22.6721 16.9994 22.7513 16.722 22.75 16.439V7.56104C22.7513 7.2781 22.6721 7.00064 22.5216 6.76106C22.3711 6.52148 22.1555 6.32967 21.9 6.20804ZM16.25 16C16.25 17.577 15.577 18.25 14 18.25H5.00004C3.42304 18.25 2.75004 17.577 2.75004 16V8.00004C2.75004 6.42304 3.42304 5.75004 5.00004 5.75004H14C15.577 5.75004 16.25 6.42304 16.25 8.00004V16ZM21.25 16.44L17.75 13.64V10.36L21.25 7.56004V16.44Z" fill="white"/>
</svg>
