<svg width="19" height="22" viewBox="0 0 19 22" fill="none" xmlns="http://www.w3.org/2000/svg">
<path d="M3.16406 7.31445C3.59772 7.31454 3.97029 7.48436 4.25488 7.8125L6.89648 10.8584L6.91504 10.8721C6.92168 10.875 6.92907 10.876 6.93652 10.876H18.5469V19.334C18.5469 20.1837 17.8562 20.8748 17.0068 20.876H1.79004C0.940427 20.8758 0.25 20.1846 0.25 19.335V8.85449L0.257812 8.69727C0.336871 7.9214 0.993597 7.31464 1.79004 7.31445H3.16406ZM8.14062 14.7549H6.60352V17.2705H8.14062V18.8066H10.6553V17.2705H12.1934V14.7549H10.6553V13.2178H8.14062V14.7549ZM10.5508 13.3223V14.8594H12.0889V17.165H10.5508V18.7021H8.24512V17.165H6.70898V14.8594H8.24512V13.3223H10.5508ZM14.4443 2.50977V10.5215H14.1943V10.7715H6.96094L6.88574 10.6855L4.33398 7.74316C4.02952 7.39238 3.62864 7.20907 3.16406 7.20898H2.18457V2.50977H14.4443ZM16.6123 0.25V10.7715H14.7998V10.5215H14.5498V2.45703C14.5497 2.42805 14.5261 2.40527 14.4971 2.40527H4.35254V0.25H16.6123ZM16.9688 9C17.0365 9.00044 17.0992 9.00098 17.1201 9.00098H17.1309L17.1416 9.00195C17.9258 9.07113 18.5374 9.73285 18.5469 10.5186L18.5498 10.7715H16.7178V8.99805L16.9688 9ZM7.2334 8.8916C7.20375 8.8916 7.18059 8.91539 7.18066 8.94336L7.18457 8.96387C7.19237 8.98289 7.21144 8.99609 7.2334 8.99609H12.125C12.1541 8.99609 12.1777 8.97242 12.1777 8.94336C12.1775 8.91449 12.1539 8.8916 12.125 8.8916H7.2334ZM5.80078 6.69434C5.77184 6.69434 5.74824 6.7172 5.74805 6.74609C5.74805 6.77515 5.77172 6.79883 5.80078 6.79883H12.125C12.154 6.79876 12.1768 6.77511 12.1768 6.74609C12.1766 6.71725 12.1539 6.69441 12.125 6.69434H5.80078ZM4.2998 4.49707C4.27082 4.49715 4.24805 4.5208 4.24805 4.5498C4.24817 4.5787 4.27089 4.60148 4.2998 4.60156H12.125C12.1539 4.60149 12.1766 4.57871 12.1768 4.5498C12.1768 4.52079 12.154 4.49714 12.125 4.49707H4.2998Z" fill="white" stroke="black" stroke-width="0.5"/>
</svg>
