<svg width="16" height="16" viewBox="0 0 16 16" fill="none" xmlns="http://www.w3.org/2000/svg">
<path fill-rule="evenodd" clip-rule="evenodd" d="M7.99996 1.6C4.46535 1.6 1.59999 4.46538 1.59999 8C1.59999 11.5346 4.46535 14.4 7.99996 14.4C11.5346 14.4 14.3999 11.5346 14.3999 8C14.3999 7.58856 14.3612 7.18696 14.2874 6.79832C14.205 6.36422 14.4902 5.94554 14.9242 5.86314C15.3582 5.78074 15.777 6.06583 15.8594 6.49992C15.9517 6.9864 15.9999 7.48792 15.9999 8C15.9999 12.4182 12.4182 16 7.99996 16C3.5817 16 0 12.4182 0 8C0 3.58172 3.5817 0 7.99996 0C9.27571 0 10.4839 0.299208 11.5559 0.832008C11.9516 1.02863 12.113 1.50878 11.9163 1.90444C11.7197 2.3001 11.2395 2.46146 10.8439 2.26482C9.98811 1.83952 9.02315 1.6 7.99996 1.6ZM15.8909 2.39682C16.1135 2.77846 15.9846 3.26832 15.603 3.49094L15.4257 3.59438C12.5498 5.27199 10.2391 7.76872 8.78891 10.7657C8.67611 10.9988 8.45756 11.1628 8.20228 11.206C7.947 11.2492 7.6866 11.1662 7.5034 10.9832L4.29265 7.77584C3.98007 7.4636 3.97979 6.95712 4.29205 6.64448C4.6043 6.33191 5.11083 6.33164 5.42341 6.64392L7.8638 9.08176C9.46019 6.2369 11.7901 3.86278 14.6194 2.21233L14.7968 2.1089C15.1784 1.88627 15.6682 2.01518 15.8909 2.39682Z" fill="white"/>
</svg>
