<svg width="24" height="24" viewBox="0 0 24 24" fill="none" xmlns="http://www.w3.org/2000/svg">
<g clip-path="url(#clip0_80_711)">
<path fill-rule="evenodd" clip-rule="evenodd" d="M20.2894 3.7125C18.3394 1.76263 15.1781 1.76263 13.2281 3.7125L3.7125 13.2272C1.80467 15.1841 1.82464 18.3112 3.7573 20.2436C5.68996 22.176 8.81707 22.1956 10.7738 20.2875L20.2903 10.7728C22.2367 8.82167 22.2363 5.66313 20.2894 3.7125ZM9.71344 19.2272C8.34938 20.5915 6.1376 20.5917 4.77328 19.2277C3.40897 17.8636 3.40876 15.6518 4.77281 14.2875L9 10.0603L13.9406 15L9.71344 19.2272ZM19.2291 9.7125L15 13.9397L10.0612 9L14.2894 4.77281C15.658 3.43582 17.8475 3.44861 19.2004 4.80151C20.5533 6.1544 20.5661 8.34389 19.2291 9.7125ZM17.7825 7.71938C17.9233 7.86005 18.0025 8.05094 18.0025 8.25C18.0025 8.44906 17.9233 8.63995 17.7825 8.78063L15.5325 11.0306C15.3429 11.22 15.0667 11.2939 14.8079 11.2244C14.5491 11.155 14.347 10.9527 14.2777 10.6938C14.2085 10.4349 14.2826 10.1588 14.4722 9.96937L16.7222 7.71938C17.015 7.42671 17.4896 7.42671 17.7825 7.71938Z" fill="#115B33"/>
</g>
<defs>
<clipPath id="clip0_80_711">
<rect width="24" height="24" fill="white"/>
</clipPath>
</defs>
</svg>
