<svg width="20" height="20" viewBox="0 0 20 20" fill="none" xmlns="http://www.w3.org/2000/svg">
<mask id="path-1-inside-1_330_1010" fill="white">
<path d="M15.5615 14.8838C17.4589 14.8838 19.0752 16.1102 19.6758 17.8135C19.8559 18.3092 19.7862 18.8625 19.4873 19.2959C19.1885 19.7293 18.6994 19.9882 18.1836 19.9883L12.9473 20C12.4214 20 11.9277 19.7407 11.627 19.3037C11.3253 18.8674 11.2544 18.3091 11.4365 17.8096C12.0527 16.1065 13.6671 14.884 15.5615 14.8838ZM4.36914 3.48828C4.36914 3.87333 4.67793 4.18641 5.05859 4.18652C5.43936 4.18652 5.74902 3.8734 5.74902 3.48828V1.39551H12.1865V3.48828C12.1865 3.87325 12.4954 4.18628 12.876 4.18652C13.2567 4.18652 13.5664 3.8734 13.5664 3.48828V1.39551H14.4863C16.3909 1.39572 17.9346 2.95743 17.9346 4.88379V9.25C17.2936 8.70227 16.4654 8.37207 15.5615 8.37207C13.5311 8.37234 11.883 10.0391 11.8828 12.0928C11.8828 13.0937 12.2747 14.004 12.9111 14.6729C11.8398 15.3017 11.0036 16.2977 10.5723 17.4883C10.3267 18.1627 10.3751 18.9045 10.6934 19.5352H3.44922C1.5446 19.5351 0.000146969 17.9732 0 16.0469V4.88379C1.8631e-05 2.95732 1.54452 1.39555 3.44922 1.39551H4.36914V3.48828ZM15.5615 9.30273C17.0852 9.30273 18.321 10.5517 18.3213 12.0928C18.3213 13.634 17.0854 14.8838 15.5615 14.8838C14.0379 14.8835 12.8027 13.6339 12.8027 12.0928C12.803 10.5519 14.0381 9.303 15.5615 9.30273ZM4.36914 11.1631C3.98844 11.1631 3.6798 11.4753 3.67969 11.8604C3.67969 12.2455 3.98838 12.5586 4.36914 12.5586H8.96777C9.34846 12.5585 9.65723 12.2454 9.65723 11.8604C9.65712 11.4754 9.3484 11.1632 8.96777 11.1631H4.36914ZM4.36914 7.44238C3.98838 7.44238 3.67969 7.75453 3.67969 8.13965C3.6797 8.52476 3.98838 8.83691 4.36914 8.83691H7.21973C7.60049 8.83691 7.91015 8.52476 7.91016 8.13965C7.91016 7.75453 7.60049 7.44238 7.21973 7.44238H4.36914ZM5.05859 0C5.43922 0 5.74881 0.312337 5.74902 0.697266V1.39551H4.36914V0.697266C4.36936 0.312409 4.67806 0.000116014 5.05859 0ZM12.876 0C13.2566 0 13.5662 0.312337 13.5664 0.697266V1.39551H12.1865V0.697266C12.1867 0.31249 12.4956 0.000247915 12.876 0Z"/>
</mask>
<path d="M19.6758 17.8135L18.9684 18.0629L18.9709 18.0696L19.6758 17.8135ZM19.4873 19.2959L20.1047 19.7217L20.1047 19.7217L19.4873 19.2959ZM18.1836 19.9883L18.1834 19.2383L18.1819 19.2383L18.1836 19.9883ZM12.9473 20V20.75L12.9489 20.75L12.9473 20ZM11.627 19.3037L12.2447 18.8785L12.2438 18.8772L11.627 19.3037ZM11.4365 17.8096L12.1412 18.0664L12.1418 18.0647L11.4365 17.8096ZM5.05859 4.18652L5.05837 4.93652H5.05859V4.18652ZM12.876 4.18652L12.8755 4.93652H12.876V4.18652ZM14.4863 1.39551L14.4864 0.645508H14.4863V1.39551ZM17.9346 4.88379H18.6846V4.88378L17.9346 4.88379ZM17.9346 9.25L17.4473 9.82019L18.6846 10.8774V9.25H17.9346ZM15.5615 8.37207V7.62207H15.5614L15.5615 8.37207ZM11.8828 12.0928L11.1328 12.0927V12.0928H11.8828ZM12.9111 14.6729L13.2908 15.3197L14.1064 14.8409L13.4545 14.1558L12.9111 14.6729ZM10.5723 17.4883L11.277 17.7449L11.2774 17.7437L10.5723 17.4883ZM10.6934 19.5352V20.2852H11.9118L11.363 19.1973L10.6934 19.5352ZM3.44922 19.5352L3.4492 20.2852H3.44922V19.5352ZM0 16.0469H-0.75V16.0469L0 16.0469ZM0 4.88379L-0.75 4.88378V4.88379H0ZM3.44922 1.39551V0.645508H3.4492L3.44922 1.39551ZM15.5615 9.30273V8.55273H15.5614L15.5615 9.30273ZM18.3213 12.0928H19.0713V12.0927L18.3213 12.0928ZM12.8027 12.0928L12.0527 12.0927V12.0928H12.8027ZM3.67969 11.8604L2.92969 11.8601V11.8604H3.67969ZM8.96777 12.5586V13.3086H8.96794L8.96777 12.5586ZM9.65723 11.8604H10.4072V11.8601L9.65723 11.8604ZM8.96777 11.1631L8.96794 10.4131H8.96777V11.1631ZM3.67969 8.13965H2.92969V8.13966L3.67969 8.13965ZM7.91016 8.13965L8.66016 8.13966V8.13965H7.91016ZM5.05859 0V-0.75L5.05836 -0.75L5.05859 0ZM5.74902 0.697266H6.49902V0.696841L5.74902 0.697266ZM4.36914 0.697266L3.61914 0.696841V0.697266H4.36914ZM12.876 0V-0.75L12.8755 -0.75L12.876 0ZM13.5664 0.697266H14.3164V0.696841L13.5664 0.697266ZM12.1865 0.697266L11.4365 0.696841V0.697266H12.1865ZM15.5615 14.8838V15.6338C17.1268 15.6338 18.4689 16.6461 18.9685 18.0629L19.6758 17.8135L20.3831 17.5641C19.6815 15.5743 17.791 14.1338 15.5615 14.1338V14.8838ZM19.6758 17.8135L18.9709 18.0696C19.0687 18.3388 19.0301 18.6378 18.8699 18.8701L19.4873 19.2959L20.1047 19.7217C20.5422 19.0872 20.6432 18.2797 20.3807 17.5573L19.6758 17.8135ZM19.4873 19.2959L18.8699 18.8701C18.7083 19.1044 18.448 19.2382 18.1834 19.2383L18.1836 19.9883L18.1838 20.7383C18.9508 20.7381 19.6686 20.3541 20.1047 19.7217L19.4873 19.2959ZM18.1836 19.9883L18.1819 19.2383L12.9456 19.25L12.9473 20L12.9489 20.75L18.1853 20.7383L18.1836 19.9883ZM12.9473 20V19.25C12.6692 19.25 12.4062 19.1129 12.2447 18.8785L11.627 19.3037L11.0092 19.729C11.4493 20.3684 12.1735 20.75 12.9473 20.75V20ZM11.627 19.3037L12.2438 18.8772C12.0812 18.642 12.042 18.3386 12.1412 18.0664L11.4365 17.8096L10.7319 17.5527C10.4669 18.2796 10.5694 19.0929 11.0101 19.7303L11.627 19.3037ZM11.4365 17.8096L12.1418 18.0647C12.6564 16.6424 13.9999 15.634 15.5616 15.6338L15.5615 14.8838L15.5614 14.1338C13.3344 14.134 11.449 15.5705 10.7313 17.5544L11.4365 17.8096ZM4.36914 3.48828H3.61914C3.61914 4.27843 4.25461 4.93628 5.05837 4.93652L5.05859 4.18652L5.05882 3.43652C5.07882 3.43653 5.09584 3.44572 5.10489 3.45489C5.11374 3.46386 5.11914 3.4767 5.11914 3.48828H4.36914ZM5.05859 4.18652V4.93652C5.86148 4.93652 6.49902 4.27966 6.49902 3.48828H5.74902H4.99902C4.99902 3.47613 5.00466 3.46321 5.0133 3.45447C5.02207 3.4456 5.03873 3.43652 5.05859 3.43652V4.18652ZM5.74902 3.48828H6.49902V1.39551H5.74902H4.99902V3.48828H5.74902ZM5.74902 1.39551V2.14551H12.1865V1.39551V0.645508H5.74902V1.39551ZM12.1865 1.39551H11.4365V3.48828H12.1865H12.9365V1.39551H12.1865ZM12.1865 3.48828H11.4365C11.4365 4.27861 12.0723 4.936 12.8755 4.93652L12.876 4.18652L12.8765 3.43652C12.8964 3.43654 12.9133 3.44569 12.9223 3.45476C12.9311 3.46366 12.9365 3.47652 12.9365 3.48828H12.1865ZM12.876 4.18652V4.93652C13.6789 4.93652 14.3164 4.27966 14.3164 3.48828H13.5664H12.8164C12.8164 3.47613 12.822 3.46321 12.8307 3.45447C12.8395 3.4456 12.8561 3.43652 12.876 3.43652V4.18652ZM13.5664 3.48828H14.3164V1.39551H13.5664H12.8164V3.48828H13.5664ZM13.5664 1.39551V2.14551H14.4863V1.39551V0.645508H13.5664V1.39551ZM14.4863 1.39551L14.4862 2.14551C15.9685 2.14567 17.1846 3.36348 17.1846 4.8838L17.9346 4.88379L18.6846 4.88378C18.6845 2.55137 16.8132 0.645768 14.4864 0.645508L14.4863 1.39551ZM17.9346 4.88379H17.1846V9.25H17.9346H18.6846V4.88379H17.9346ZM17.9346 9.25L18.4218 8.67981C17.651 8.02116 16.6518 7.62207 15.5615 7.62207V8.37207V9.12207C16.2791 9.12207 16.9362 9.38338 17.4473 9.82019L17.9346 9.25ZM15.5615 8.37207L15.5614 7.62207C13.1089 7.62239 11.133 9.63293 11.1328 12.0927L11.8828 12.0928L12.6328 12.0928C12.633 10.4454 13.9533 9.12228 15.5616 9.12207L15.5615 8.37207ZM11.8828 12.0928H11.1328C11.1328 13.2927 11.6033 14.3864 12.3678 15.1899L12.9111 14.6729L13.4545 14.1558C12.9461 13.6216 12.6328 12.8947 12.6328 12.0928H11.8828ZM12.9111 14.6729L12.5315 14.026C11.3101 14.743 10.3583 15.8771 9.86711 17.2328L10.5723 17.4883L11.2774 17.7437C11.6489 16.7184 12.3696 15.8604 13.2908 15.3197L12.9111 14.6729ZM10.5723 17.4883L9.86753 17.2317C9.55052 18.1023 9.61312 19.0591 10.0238 19.873L10.6934 19.5352L11.363 19.1973C11.1372 18.7498 11.1029 18.2231 11.277 17.7449L10.5723 17.4883ZM10.6934 19.5352V18.7852H3.44922V19.5352V20.2852H10.6934V19.5352ZM3.44922 19.5352L3.44923 18.7852C1.96677 18.7851 0.750116 17.567 0.75 16.0468L0 16.0469L-0.75 16.0469C-0.749822 18.3795 1.12243 20.2851 3.4492 20.2852L3.44922 19.5352ZM0 16.0469H0.75V4.88379H0H-0.75V16.0469H0ZM0 4.88379L0.75 4.8838C0.750015 3.36359 1.96665 2.14554 3.44923 2.14551L3.44922 1.39551L3.4492 0.645508C1.1224 0.645558 -0.749977 2.55105 -0.75 4.88378L0 4.88379ZM3.44922 1.39551V2.14551H4.36914V1.39551V0.645508H3.44922V1.39551ZM4.36914 1.39551H3.61914V3.48828H4.36914H5.11914V1.39551H4.36914ZM15.5615 9.30273V10.0527C16.6633 10.0527 17.5711 10.9582 17.5713 12.0929L18.3213 12.0928L19.0713 12.0927C19.071 10.1452 17.5071 8.55273 15.5615 8.55273V9.30273ZM18.3213 12.0928H17.5713C17.5713 13.2278 16.6632 14.1338 15.5615 14.1338V14.8838V15.6338C17.5075 15.6338 19.0713 14.0403 19.0713 12.0928H18.3213ZM15.5615 14.8838L15.5617 14.1338C14.4603 14.1336 13.5527 13.2278 13.5527 12.0928H12.8027H12.0527C12.0527 14.0399 13.6155 15.6334 15.5614 15.6338L15.5615 14.8838ZM12.8027 12.0928L13.5527 12.0929C13.5529 10.9582 14.4602 10.0529 15.5617 10.0527L15.5615 9.30273L15.5614 8.55273C13.6159 8.55307 12.053 10.1456 12.0527 12.0927L12.8027 12.0928ZM4.36914 11.1631V10.4131C3.5661 10.4131 2.92992 11.0693 2.92969 11.8601L3.67969 11.8604L4.42969 11.8606C4.42968 11.8814 4.41079 11.9131 4.36914 11.9131V11.1631ZM3.67969 11.8604H2.92969C2.92969 12.6503 3.56489 13.3086 4.36914 13.3086V12.5586V11.8086C4.38917 11.8086 4.40631 11.8178 4.41544 11.8271C4.42435 11.8361 4.42969 11.8489 4.42969 11.8604H3.67969ZM4.36914 12.5586V13.3086H8.96777V12.5586V11.8086H4.36914V12.5586ZM8.96777 12.5586L8.96794 13.3086C9.77183 13.3084 10.4072 12.6505 10.4072 11.8604H9.65723H8.90723C8.90723 11.8488 8.91261 11.836 8.92148 11.827C8.93054 11.8178 8.9476 11.8086 8.9676 11.8086L8.96777 12.5586ZM9.65723 11.8604L10.4072 11.8601C10.407 11.0691 9.77061 10.4133 8.96794 10.4131L8.96777 11.1631L8.9676 11.9131C8.92618 11.9131 8.90723 11.8816 8.90723 11.8606L9.65723 11.8604ZM8.96777 11.1631V10.4131H4.36914V11.1631V11.9131H8.96777V11.1631ZM4.36914 7.44238V6.69238C3.56624 6.69238 2.92969 7.34828 2.92969 8.13965H3.67969H4.42969C4.42969 8.16078 4.41051 8.19238 4.36914 8.19238V7.44238ZM3.67969 8.13965L2.92969 8.13966C2.9297 8.93099 3.56623 9.58691 4.36914 9.58691V8.83691V8.08691C4.41053 8.08691 4.42969 8.11852 4.42969 8.13963L3.67969 8.13965ZM4.36914 8.83691V9.58691H7.21973V8.83691V8.08691H4.36914V8.83691ZM7.21973 8.83691V9.58691C8.02126 9.58691 8.66014 8.93238 8.66016 8.13966L7.91016 8.13965L7.16016 8.13963C7.16016 8.11713 7.17971 8.08691 7.21973 8.08691V8.83691ZM7.91016 8.13965H8.66016C8.66016 7.34689 8.02125 6.69238 7.21973 6.69238V7.44238V8.19238C7.17973 8.19238 7.16016 8.16217 7.16016 8.13965H7.91016ZM7.21973 7.44238V6.69238H4.36914V7.44238V8.19238H7.21973V7.44238ZM5.05859 0V0.75C5.01805 0.75 4.99904 0.719643 4.99902 0.69769L5.74902 0.697266L6.49902 0.696841C6.49857 -0.0949696 5.8604 -0.75 5.05859 -0.75V0ZM5.74902 0.697266H4.99902V1.39551H5.74902H6.49902V0.697266H5.74902ZM5.74902 1.39551V0.645508H4.36914V1.39551V2.14551H5.74902V1.39551ZM4.36914 1.39551H5.11914V0.697266H4.36914H3.61914V1.39551H4.36914ZM4.36914 0.697266L5.11914 0.697691C5.11913 0.718555 5.10044 0.749987 5.05882 0.75L5.05859 0L5.05836 -0.75C4.25569 -0.749755 3.61959 -0.0937376 3.61914 0.696841L4.36914 0.697266ZM12.876 0V0.75C12.8354 0.75 12.8164 0.719643 12.8164 0.69769L13.5664 0.697266L14.3164 0.696841C14.316 -0.0949694 13.6778 -0.75 12.876 -0.75V0ZM13.5664 0.697266H12.8164V1.39551H13.5664H14.3164V0.697266H13.5664ZM13.5664 1.39551V0.645508H12.1865V1.39551V2.14551H13.5664V1.39551ZM12.1865 1.39551H12.9365V0.697266H12.1865H11.4365V1.39551H12.1865ZM12.1865 0.697266L12.9365 0.69769C12.9365 0.718897 12.9177 0.749973 12.8765 0.75L12.876 0L12.8755 -0.75C12.0734 -0.749477 11.437 -0.0939172 11.4365 0.696841L12.1865 0.697266Z" fill="black" mask="url(#path-1-inside-1_330_1010)"/>
</svg>
