<svg width="22" height="22" viewBox="0 0 22 22" fill="none" xmlns="http://www.w3.org/2000/svg">
<path d="M11 0C4.93439 0 0 4.93449 0 10.9998C0 17.0653 4.93439 22 11 22C17.0652 22 22 17.0653 22 10.9998C22 4.93449 17.0652 0 11 0ZM14.1089 6.94396C14.1089 6.99604 14.0882 7.046 14.0514 7.08283C14.0146 7.11966 13.9646 7.14035 13.9125 7.14035L12.6621 7.14113C11.837 7.14113 11.6862 7.46243 11.6862 8.0952V9.40787H13.8308C13.8872 9.40787 13.941 9.43222 13.9781 9.47464C14.0152 9.51706 14.0325 9.57342 14.0256 9.62939L13.7202 11.9926C13.7141 12.0399 13.691 12.0834 13.6551 12.1149C13.6193 12.1464 13.5732 12.1638 13.5254 12.1638H11.6862V18.0317C11.6862 18.0838 11.6655 18.1338 11.6287 18.1706C11.5918 18.2074 11.5419 18.2281 11.4898 18.2281H9.04981C8.99773 18.2281 8.94777 18.2074 8.91094 18.1706C8.87411 18.1338 8.85342 18.0838 8.85342 18.0317V12.1638H7.0083C6.95621 12.1638 6.90626 12.1431 6.86943 12.1063C6.8326 12.0695 6.81191 12.0195 6.81191 11.9674V9.60426C6.81191 9.55217 6.8326 9.50222 6.86943 9.46539C6.90626 9.42856 6.95621 9.40787 7.0083 9.40787H8.85342V7.8613C8.85342 5.81295 10.0931 4.54073 12.089 4.54073C12.947 4.54073 13.7053 4.60456 13.9382 4.63539C13.9854 4.64163 14.0288 4.66481 14.0602 4.70061C14.0916 4.73641 14.1089 4.7824 14.1089 4.83002V6.94396Z" fill="white"/>
</svg>
